<?xml version="1.0" standalone="no"?>
<!DOCTYPE svg PUBLIC "-//W3C//DTD SVG 20010904//EN"
 "http://www.w3.org/TR/2001/REC-SVG-20010904/DTD/svg10.dtd">
<svg version="1.0" xmlns="http://www.w3.org/2000/svg"
 width="16.000000pt" height="16.000000pt" viewBox="0 0 16.000000 16.000000"
 preserveAspectRatio="xMidYMid meet">
<metadata>
Created by potrace 1.11, written by Peter Selinger 2001-2013
</metadata>
<g transform="translate(0.000000,16.000000) scale(0.000750,-0.000750)"
fill="#000000" stroke="none">
<path d="M11065 12995 c-111 -20 -224 -69 -352 -155 -160 -107 -227 -170 -342
-324 -384 -514 -859 -891 -1666 -1323 -223 -120 -827 -428 -910 -464 -100 -43
-244 -84 -342 -97 -177 -22 -396 4 -558 67 -59 22 -218 106 -275 144 -36 24
-103 70 -150 102 -129 87 -250 142 -400 180 -65 17 -128 19 -365 15 -110 -3
-281 5 -335 15 -8 1 -49 8 -90 15 -240 39 -528 130 -810 258 -157 70 -341 125
-515 154 -87 14 -376 17 -465 6 -30 -4 -74 -10 -97 -13 -81 -11 -288 -73 -366
-110 -464 -218 -1160 -804 -1471 -1239 -31 -43 -55 -81 -52 -83 4 -4 31 18 80
62 6 6 67 58 136 115 69 58 127 107 130 110 3 3 84 73 180 155 96 82 197 170
225 195 157 139 197 174 265 227 76 61 206 153 215 153 2 0 21 11 41 25 98 67
402 191 514 210 19 3 53 10 75 15 109 23 346 34 462 19 147 -17 169 -20 185
-25 17 -5 43 -11 90 -19 60 -11 258 -76 353 -115 297 -123 310 -128 490 -171
44 -10 98 -21 120 -24 22 -3 51 -7 65 -10 14 -3 39 -7 55 -9 17 -2 50 -8 75
-12 25 -4 54 -8 65 -10 209 -27 292 -39 405 -60 149 -26 176 -31 235 -39 187
-27 272 -59 385 -146 248 -192 474 -298 730 -344 138 -25 374 -25 506 -1 36 7
104 18 111 18 5 0 18 4 31 9 12 5 22 5 22 0 0 -4 -67 -93 -149 -197 -82 -104
-148 -190 -147 -191 1 -2 83 24 182 56 911 300 839 282 906 228 l28 -23 -116
-204 c-63 -113 -131 -234 -151 -270 -20 -36 -65 -116 -101 -178 -36 -62 -63
-114 -61 -117 9 -8 276 180 383 269 122 103 269 251 333 336 39 52 91 142 144
250 92 187 143 247 258 301 47 22 94 45 103 50 30 16 38 10 59 -38 11 -27 27
-61 34 -78 21 -46 34 -104 29 -128 -2 -12 -7 -35 -9 -52 -11 -62 -57 -244
-120 -474 -35 -131 -67 -253 -70 -271 -13 -72 -66 -179 -115 -229 -88 -90
-185 -125 -530 -187 -36 -6 -72 -14 -95 -19 -11 -3 -69 -16 -130 -29 -60 -13
-130 -29 -155 -34 -25 -6 -56 -13 -70 -16 -20 -4 -234 -52 -325 -72 -137 -31
-260 -51 -300 -49 -41 1 -84 19 -244 99 -106 53 -217 110 -245 125 -67 37
-300 160 -351 186 -31 16 -40 26 -41 48 -1 15 2 28 5 28 3 1 239 2 523 3 330
1 520 5 526 11 6 6 12 36 16 68 5 46 3 57 -9 58 -8 1 -18 2 -22 3 -5 1 -28 6
-53 10 -25 5 -53 10 -63 12 -16 3 -279 42 -332 49 -19 3 -168 29 -229 41 -16
3 -33 7 -36 9 -4 2 -22 7 -41 10 -117 20 -302 88 -439 162 -143 77 -246 151
-575 412 -121 96 -226 179 -233 184 -7 5 -15 8 -17 5 -3 -2 13 -57 34 -121 22
-65 37 -116 33 -114 -4 2 -113 56 -242 120 -129 63 -434 214 -678 335 -243
121 -444 216 -446 213 -2 -3 3 -40 10 -81 7 -41 15 -90 18 -110 11 -77 17
-117 26 -169 13 -71 13 -94 0 -86 -24 15 -364 145 -368 141 -4 -4 26 -79 83
-211 158 -361 389 -831 471 -957 13 -21 24 -40 24 -43 0 -8 82 -142 159 -260
265 -409 570 -724 883 -913 47 -29 89 -52 92 -52 4 0 -43 66 -104 148 -339
451 -515 692 -505 692 10 0 360 -92 370 -97 35 -19 -25 24 -115 82 -339 222
-554 457 -675 740 -38 89 -81 228 -91 295 -3 19 -7 40 -9 47 -2 6 -7 49 -10
95 -4 46 -8 95 -10 111 -1 15 1 27 5 27 23 0 175 -44 230 -67 219 -91 382
-225 679 -558 175 -196 336 -359 338 -343 2 7 -17 99 -41 203 -24 105 -41 193
-39 198 2 4 23 -8 46 -27 23 -18 92 -69 152 -113 149 -107 208 -161 291 -263
152 -188 351 -283 592 -281 46 0 105 -4 131 -10 58 -14 401 -150 401 -160 0
-4 -8 -10 -17 -13 -10 -3 -27 -12 -38 -19 -11 -6 -70 -41 -130 -77 -140 -82
-147 -86 -236 -138 -41 -24 -89 -52 -107 -63 -18 -11 -153 -90 -300 -175 -147
-86 -271 -160 -276 -165 -9 -8 31 -5 111 6 18 3 78 22 135 44 57 21 171 62
253 91 83 28 276 97 430 152 584 209 1038 352 1314 414 336 75 490 120 638
189 227 106 388 249 558 494 55 79 104 149 110 155 6 6 48 62 94 124 46 61 86
112 90 112 4 0 15 -6 24 -12 15 -12 12 -21 -34 -103 -28 -49 -65 -115 -82
-145 -17 -30 -41 -72 -54 -92 -13 -21 -23 -40 -23 -42 0 -2 -21 -40 -46 -83
-26 -43 -84 -143 -129 -223 -45 -80 -118 -208 -162 -285 -44 -77 -86 -151 -93
-164 l-13 -24 49 28 c87 49 168 117 332 277 250 242 357 302 525 294 82 -5
165 -28 235 -68 18 -10 34 -18 36 -18 3 0 62 78 132 173 205 278 430 555 539
662 112 110 197 175 391 294 71 44 163 102 204 128 137 86 178 105 244 109
128 10 207 48 278 135 37 45 97 160 119 227 17 53 78 167 129 242 l16 23 69
-59 c39 -32 83 -72 98 -88 34 -37 153 -234 381 -633 113 -198 172 -291 180
-285 6 4 30 20 53 35 48 33 57 -2 -71 281 -47 103 -86 190 -86 192 0 2 -27 60
-60 130 -33 69 -60 129 -60 131 0 17 -243 492 -259 507 -31 29 -160 68 -221
68 -58 0 -176 -41 -252 -89 -21 -13 -40 -23 -43 -23 -10 0 -175 -111 -274
-183 -85 -63 -332 -265 -356 -291 -10 -11 -194 -168 -228 -195 -14 -11 -13 -2
9 55 15 38 34 89 44 114 105 276 182 474 199 513 11 26 18 47 15 47 -2 0 0 9
6 20 6 11 9 20 6 20 -3 0 -17 -23 -31 -51 -126 -251 -295 -487 -443 -618 -220
-194 -480 -300 -776 -318 l-102 -6 2 264 c1 278 6 343 30 434 39 152 120 248
274 325 246 123 332 250 333 490 0 80 -20 250 -30 250 -2 0 -9 -5 -16 -11 -7
-5 -113 -77 -237 -158 -124 -82 -295 -198 -380 -259 -84 -61 -156 -110 -158
-108 -13 14 125 239 208 341 58 71 250 255 311 298 164 116 325 153 462 108
130 -44 219 -127 353 -328 179 -270 350 -382 587 -388 82 -3 210 20 257 45 8
4 58 19 110 33 371 97 706 31 1035 -205 124 -90 136 -100 375 -334 246 -242
252 -247 374 -353 112 -97 114 -99 206 -171 36 -28 72 -57 80 -64 8 -6 60 -43
115 -82 308 -218 659 -389 985 -480 47 -13 231 -55 265 -60 22 -3 42 -7 45 -9
3 -1 32 -6 65 -10 33 -3 74 -8 90 -10 17 -2 62 -7 100 -10 108 -9 179 -24 252
-51 233 -87 454 -282 578 -507 43 -79 52 -112 27 -102 -9 4 -55 20 -102 36
-47 17 -94 34 -105 39 -11 4 -78 28 -150 53 -128 44 -454 160 -770 272 -88 32
-234 83 -325 115 -91 32 -230 81 -309 109 -79 28 -145 50 -146 49 -5 -7 -45
-133 -45 -143 0 -8 163 -55 245 -71 17 -3 147 -34 185 -44 19 -5 73 -19 120
-30 259 -65 455 -141 665 -260 45 -25 258 -166 350 -231 212 -150 358 -241
1105 -684 l105 -63 29 45 29 44 -23 32 c-13 18 -34 46 -47 64 -21 27 -22 31
-6 27 10 -2 113 -27 228 -55 116 -28 219 -52 230 -55 11 -2 86 -20 165 -40
191 -47 428 -101 528 -119 14 -2 48 -9 76 -14 28 -6 65 -13 81 -16 17 -2 55
-9 85 -15 30 -5 78 -12 105 -15 28 -4 75 -10 105 -15 30 -5 87 -12 125 -15 39
-3 88 -8 110 -10 38 -4 129 -10 290 -20 91 -6 320 -14 570 -20 443 -11 558
-16 566 -21 5 -3 9 0 9 5 0 6 -15 12 -32 12 -18 1 -42 3 -53 4 -11 2 -47 6
-80 10 -33 3 -71 8 -84 10 -14 3 -54 7 -90 10 -36 3 -77 8 -91 10 -14 2 -54 7
-90 10 -36 4 -76 8 -90 10 -14 2 -56 7 -95 10 -38 3 -77 8 -85 10 -8 2 -49 7
-90 10 -41 3 -86 8 -100 10 -14 3 -50 7 -80 10 -30 3 -89 10 -130 15 -41 5
-97 12 -125 15 -27 3 -63 8 -80 10 -16 2 -52 7 -80 10 -57 7 -460 63 -490 69
-11 2 -54 9 -95 16 -41 6 -86 14 -100 16 -14 3 -61 11 -104 19 -792 145 -1277
405 -1631 875 -115 154 -191 238 -322 361 -51 47 -213 167 -288 211 -80 47
-233 119 -323 152 -153 55 -386 107 -542 121 -30 3 -66 7 -80 10 -14 2 -43 7
-65 10 -179 25 -484 139 -618 229 -21 14 -40 26 -43 26 -7 0 -145 101 -204
149 -68 57 -119 104 -225 206 -45 44 -133 127 -195 185 -62 58 -127 119 -145
135 -18 17 -61 55 -96 85 -35 30 -80 69 -99 87 -80 72 -382 320 -478 393 -139
104 -328 200 -447 226 -95 21 -132 25 -215 26 -104 0 -188 -13 -281 -42 -289
-93 -493 -84 -689 29 -94 54 -204 166 -295 300 -36 54 -88 121 -116 149 -146
151 -331 212 -534 177z"/>
<path d="M13452 11769 c-21 -14 -30 -25 -24 -33 5 -6 42 -74 82 -151 40 -77
92 -176 116 -221 24 -45 44 -83 44 -86 0 -3 -11 -13 -24 -22 -24 -15 -25 -15
-86 57 -34 39 -84 97 -110 127 -26 30 -80 94 -120 143 -40 48 -74 87 -76 87
-11 0 -73 -43 -70 -48 2 -4 29 -49 60 -100 31 -51 56 -94 56 -96 0 -6 64 -110
97 -156 47 -68 95 -115 170 -166 291 -201 542 -412 808 -679 237 -237 435
-465 632 -726 53 -71 99 -129 102 -129 57 2 10 128 -118 319 -137 203 -163
293 -125 421 9 29 31 76 51 104 l34 50 -49 46 c-92 84 -234 215 -252 230 -33
29 -185 167 -330 300 -51 47 -102 93 -114 103 -12 10 -61 55 -110 100 -49 45
-94 87 -100 92 -13 12 -216 195 -232 210 -67 61 -186 169 -223 202 -25 24 -48
43 -51 43 -3 0 -20 -10 -38 -21z"/>
<path d="M3819 11096 c-2 -2 -21 -7 -41 -10 -191 -30 -462 -137 -628 -247 -73
-48 -220 -158 -264 -198 -128 -115 -338 -322 -454 -448 l-39 -43 -11 38 c-7
20 -21 69 -33 107 -11 39 -24 81 -28 95 -4 14 -12 24 -17 22 -10 -2 -548 -321
-604 -357 -36 -23 -619 -371 -655 -390 -11 -6 -63 -37 -115 -68 -52 -32 -102
-61 -110 -66 -178 -107 -459 -275 -470 -281 -8 -5 -59 -36 -114 -69 -54 -34
-100 -61 -103 -61 -3 0 -17 -8 -31 -19 -15 -10 -45 -28 -67 -40 l-40 -21 130
-1 c72 -1 168 -2 215 -2 108 -1 191 7 221 23 13 7 54 32 91 57 135 89 272 146
430 179 117 25 473 24 551 -1 7 -2 35 -6 62 -9 28 -3 61 -8 75 -11 14 -3 39
-8 55 -11 17 -3 62 -11 100 -19 39 -8 108 -21 155 -29 47 -8 99 -18 115 -21
65 -12 213 -15 263 -4 64 13 114 53 129 103 13 43 10 146 -7 215 l-12 50 172
273 c95 150 177 278 184 285 6 6 70 17 141 25 l130 13 -3 95 c-9 250 89 406
398 639 166 125 237 183 244 199 5 11 -5 17 -15 8z"/>
</g>
</svg>
