<?xml version="1.0" encoding="utf-8"?>
<!-- Generator: Adobe Illustrator 21.0.0, SVG Export Plug-In . SVG Version: 6.00 Build 0)  -->
<svg version="1.1" id="Layer_1" xmlns="http://www.w3.org/2000/svg" xmlns:xlink="http://www.w3.org/1999/xlink" x="0px" y="0px"
	 viewBox="0 0 532.9 117.1" style="enable-background:new 0 0 532.9 117.1;" xml:space="preserve">
<style type="text/css">
	.st0{fill:#FFFFFF;}
</style>
<title>cascade New Logo</title>
<path class="st0" d="M335,64.3c-4.2-7.3-8.3-14.7-12.7-21.9c-1.2-2-3.5-3.3-5.3-5c-1.3,1.9-2.4,3.9-3.4,6c-1.9,5-3.9,9.6-10.5,9.7
	c-1.7,0-3.5,1.4-5.1,2.4c-4.5,2.8-9.3,5.4-13.4,8.8c-3.6,3.1-6.6,7.1-9.6,10.9s-6.1,8-9.1,12.1c-14.1-8.1-18.6,7.5-29.4,12.7
	l16.3-28.6l-1.1-0.9c-2.8,3.8-5.8,7.6-8.4,11.5c-6.2,9.3-15,12.6-25.9,15c-17,3.6-33.4,10.4-50,16c-2.9,1-5.5,2.6-9.1,2.4l28-16.4
	c-5.2-1.8-9-4.3-12.8-4.2c-7.1,0.2-11.9-2.2-16.2-7.8c-2.7-3.5-6.9-5.8-11.9-9.7l2.4,10.9c-10.6-9.8-16.9-22.3-31.5-24.7
	c0.3,17.2,9.8,27.1,23,34.9l-9.9-2.5l15.7,21.2c-16.2-8.6-28.9-27.1-43-61.1l9.8,3.9l-1.8-11.5l34.4,17l-2.1-6.3
	c8.2,6,15.2,13,23.7,16.8s18.5,4.1,27.8,6l-0.4,3.2h-26.4l-0.2,1.5c6.8,3.5,13.5,7.2,20.4,10.5c1.6,0.7,3.9,0.3,5.7-0.1
	c9.6-2,19.1-4.4,28.7-6.2c5.4-1,9-3.2,10.4-8.8c1.6-6.7,3.8-13.3,5.1-20.1c0.4-2.1-1.3-4.6-2.1-6.9c-2.4,1.3-5.4,2-6.9,3.9
	c-2.9,3.9-4.4,9-7.5,12.6c-4.9,5.6-10.7,10.4-17.2,14.1l10.9-19.3l-2.3-1.8L186.3,73l7.8-10c-14.3,3.5-25.8,0.2-36.3-8.5
	c-3.1-2.6-8.5-2.6-12.9-3.5c-10-2.1-20.9-2.1-30-6.2c-20.7-9.5-38.6-7.1-55.2,7.9c-6.8,6.1-13.8,11.9-22.2,19.1
	C44.6,59.5,68.1,40.5,79,37.2c10.9-3.4,22.7-2.5,33,2.4c11,5,22,7.9,34.3,7c5.4-0.4,12,2.4,16.5,5.8c11.3,8.5,22.6,9.6,34.8,3.3
	c23.1-11.9,47.1-22.5,62.7-45c1.9-2.8,4.9-4.9,7.8-6.8c9-6.1,18.4-5,24.2,4c6.4,10,14,12.4,25,8.8c9-3,17.4,0.3,24.4,5.9
	c9.1,7.2,17.8,14.8,26,22.9c8.2,8.1,17.6,13.2,28.9,14.3c15.6,1.5,28,8.1,37.2,21c10.2,14.2,25.8,19.4,41.9,22.2
	c18.4,3.3,37.1,4.8,57.1,7.2c-15.6-0.7-29.8-0.4-43.8-2.2c-13.6-1.8-26.9-5.7-40-8.7l2.4,3.3l-1.4,2.1c-7.5-4.5-15.1-8.8-22.5-13.5
	s-14-10.2-21.8-13.7s-16.7-4.8-25.1-7.1l1.2-3.8l48.3,17.1c-1.9-6.2-10.7-16-21.1-16.7c-25.7-1.7-43.8-15.6-60.7-33
	c-9.8-10.1-21.4-16.4-36.7-10.8c-8.6,3.2-16.1-0.9-20.6-8.5c-7.2-12.3-16.2-10.9-25.3-1.6c-3.7,3.5-6.6,7.7-8.6,12.4
	c3.3-2.4,6.6-4.8,10-7.1s6.7-4.4,10.3-6.7c1.6,10.6,0.1,14.6-8,18.5c-6.5,3.1-7.1,8.5-7.3,14.4c-0.1,3.7,0,7.4,0,11
	c18.8-0.2,27.3-11.7,34.3-25.9l-8,20.9c5.9-5,10.2-9,14.9-12.5c3.9-2.9,8.1-5.8,12.6-7.4c2.2-0.8,7,0.4,8,2.2
	c5.1,9.6,9.3,19.6,13.9,29.5L335,64.3z M241.6,71l14.5-12.4l-5.8-7.8L241.6,71z"/>
<path class="st0" d="M0,99.1l57.7-34.5l2,6.8C70,60.7,79.7,49.9,96.1,47.7c-7.6,7-18.4,10.7-16.1,23.5l-6.9,0.7l-9,14.3
	c2.2,8.6-0.1,10.8-12.1,8.6c-12.5-2.4-25-5.7-37,3.2C12.2,100.1,6.7,98.7,0,99.1z"/>
<path class="st0" d="M331.3,33.3l9.1,10.8l1.4-0.9l-6.3-11.9l1.6-1.1l36.5,33.2c-7.4,9.1,3.7,14.6,4.7,22.1c0,0-0.7,0.3-0.8,0.2
	c-11-15-23.6-28.3-39.1-38.8c-4-2.7-6-8.3-8.9-12.5L331.3,33.3z"/>
<path class="st0" d="M241.6,71l8.7-20.2l5.8,7.8L241.6,71z"/>
</svg>
