<?xml version="1.0" encoding="utf-8"?>
<!-- Generator: Adobe Illustrator 21.0.0, SVG Export Plug-In . SVG Version: 6.00 Build 0)  -->
<svg version="1.1" id="Capa_1" xmlns="http://www.w3.org/2000/svg" xmlns:xlink="http://www.w3.org/1999/xlink" x="0px" y="0px"
	 viewBox="0 0 55 40.7" style="enable-background:new 0 0 55 40.7;" xml:space="preserve">
<path d="M34.2,18.3l3.6-2.1l-10.3-5.9l-10.3,5.9l3.6,2.1l-3.6,2.1l3.6,2.1l-3.6,2.1l10.3,5.9l10.3-5.9l-3.6-2.1l3.6-2.1L34.2,18.3z
	 M27.5,11.2l8.8,5l-8.8,5l-8.8-5L27.5,11.2z M21.5,18.7l5.9,3.4l5.9-3.4l2.9,1.6l-8.8,5l-8.8-5L21.5,18.7z M36.3,24.5l-8.8,5l-8.8-5
	l2.9-1.6l5.9,3.4l5.9-3.4L36.3,24.5z"/>
</svg>
