<svg id="Capa_1" data-name="Capa 1" xmlns="http://www.w3.org/2000/svg" viewBox="0 0 55 40.7"><defs><style>.cls-1{stroke:#000;stroke-miterlimit:10;stroke-width:0.1px;}</style></defs><title>tyrian</title><path class="cls-1" d="M27.5,31,16.3,19.81,27.5,8.61l11.2,11.2ZM16.55,19.81,27.5,30.75,38.45,19.81,27.5,8.86Z"/><path class="cls-1" d="M27.5,32.09,16.3,20.89,27.5,9.7l11.2,11.2ZM16.55,20.89,27.5,31.84,38.45,20.89,27.5,9.95Z"/><path class="cls-1" d="M35,27.85H19.17V12H35Zm-15.66-.18H34.82V12.19H19.34Z"/><path class="cls-1" d="M35.83,28.68H20V12.85H35.83Zm-15.66-.18H35.66V13H20.18Z"/><path class="cls-1" d="M34.15,27H20.85V13.7H34.15ZM21,26.83H34v-13H21Z"/></svg>