<?xml version="1.0" encoding="utf-8"?>
<!-- Generator: Adobe Illustrator 21.0.0, SVG Export Plug-In . SVG Version: 6.00 Build 0)  -->
<svg version="1.1" id="Layer_1" xmlns="http://www.w3.org/2000/svg" xmlns:xlink="http://www.w3.org/1999/xlink" x="0px" y="0px"
	 viewBox="0 0 204.1 95.3" style="enable-background:new 0 0 204.1 95.3;" xml:space="preserve">
<style type="text/css">
	.st0{fill:#FFFFFF;}
	.st1{font-family:'Roboto-Regular';}
	.st2{font-size:57.1841px;}
	.st3{font-size:15.943px;}
	.st4{font-size:20.4595px;}
</style>
<title>Mainstreet Arc White</title>
<g>
	<text transform="matrix(1 0 0 1 42.4483 54.1543)" class="st0 st1 st2">A</text>
	<g>
		<g id="lR35gV.tif">
			<g>
				<g>
					<path class="st0" d="M40.2,65C30.6,74.6,21,84.2,11.8,93.4c-1,1-2.4,1.4-3.4,1.9c-1,0-3.4-0.5-3.4-1.4c-0.5-1.4,0-3.9,0.5-4.8
						c1.9-2.4,4.3-4.8,6.7-6.7c7.7-7.2,15.4-14.4,23.1-21.7"/>
				</g>
			</g>
		</g>
		<g>
			<path class="st0" d="M60.9,0.9c-19.7,0-35.7,16-35.7,35.7s16,35.7,35.7,35.7c11.4,0,21.6-5.4,28.1-13.8c-0.4,0-0.8-0.1-1.1-0.2
				c-6.4,7.9-16.1,13-27,13c-19.1,0-34.7-15.5-34.7-34.7c0-19.1,15.5-34.7,34.7-34.7c19.1,0,34.7,15.5,34.7,34.7
				c0,1.5-0.1,2.9-0.3,4.3c0.3,0,0.7,0.1,1,0.1c0.2-1.5,0.3-2.9,0.3-4.4C96.6,16.9,80.6,0.9,60.9,0.9z"/>
		</g>
	</g>
</g>
<text transform="matrix(1 0 0 1 90.1521 67.6121)" class="st0 st1 st3"> Inspections</text>
<text transform="matrix(1 0 0 1 84.0143 54.1543)" class="st0 st1 st4">ssessment</text>
</svg>
