<?xml version="1.0" encoding="utf-8"?>
<!-- Generator: Adobe Illustrator 21.0.0, SVG Export Plug-In . SVG Version: 6.00 Build 0)  -->
<svg version="1.1" id="Layer_1" xmlns="http://www.w3.org/2000/svg" xmlns:xlink="http://www.w3.org/1999/xlink" x="0px" y="0px"
	 viewBox="0 0 204.1 95.3" style="enable-background:new 0 0 204.1 95.3;" xml:space="preserve">
<style type="text/css">
	.st0{fill:#FFFFFF;}
</style>
<title>Mainstreet Arc White</title>
<g>
	<path class="st0" d="M127.5,49.8c-1.6-2.7-3.1-5.5-4.7-8.1c-0.5-0.7-1.3-1.2-2-1.9c-0.5,0.7-0.9,1.5-1.2,2.2
		c-0.7,1.9-1.4,3.6-3.9,3.6c-0.6,0-1.3,0.5-1.9,0.9c-1.7,1.1-3.5,2-5,3.3c-1.3,1.2-2.5,2.6-3.6,4c-1.1,1.4-2.2,3-3.4,4.5
		c-5.2-3-6.9,2.8-10.9,4.7l6-10.6l-0.4-0.3c-1,1.4-2.1,2.8-3.1,4.3c-2.3,3.4-5.6,4.7-9.6,5.6c-6.3,1.4-12.4,3.9-18.5,5.9
		c-1.1,0.4-2,1-3.4,0.9l10.4-6.1c-1.9-0.7-3.3-1.6-4.7-1.5c-2.6,0.1-4.4-0.8-6-2.9c-1-1.3-2.6-2.1-4.4-3.6l0.9,4
		c-3.9-3.6-6.3-8.3-11.7-9.1c0.1,6.4,3.6,10.1,8.5,13l-3.7-0.9l5.8,7.9c-6-3.2-10.7-10.1-16-22.7l3.6,1.4L44,43.9l12.8,6.3L56,47.8
		c3,2.2,5.6,4.8,8.8,6.2s6.8,1.5,10.3,2.2L75,57.5h-9.8L65.1,58c2.5,1.3,5,2.7,7.5,3.9c0.6,0.3,1.4,0.1,2.1,0
		c3.6-0.7,7.1-1.6,10.6-2.3c2-0.4,3.3-1.2,3.8-3.3c0.6-2.5,1.4-4.9,1.9-7.5c0.1-0.8-0.5-1.7-0.8-2.6c-0.9,0.5-2,0.7-2.6,1.5
		c-1.1,1.4-1.6,3.3-2.8,4.7c-1.8,2.1-4,3.9-6.4,5.2l4-7.2l-0.8-0.7L72.3,53l2.9-3.7c-5.3,1.3-9.6,0.1-13.5-3.2c-1.2-1-3.2-1-4.8-1.3
		c-3.7-0.8-7.8-0.8-11.1-2.3c-7.7-3.5-14.3-2.6-20.5,2.9c-2.5,2.3-5.1,4.4-8.3,7.1c2.7-4.5,11.4-11.6,15.4-12.8
		c4-1.3,8.4-0.9,12.2,0.9c4.1,1.9,8.2,2.9,12.7,2.6c2-0.2,4.5,0.9,6.1,2.1c4.2,3.1,8.4,3.6,12.9,1.2c8.6-4.4,17.5-8.4,23.3-16.7
		c0.7-1,1.8-1.8,2.9-2.5c3.3-2.2,6.8-1.9,9,1.5c2.4,3.7,5.2,4.6,9.3,3.3c3.3-1.1,6.5,0.1,9,2.2c3.4,2.7,6.6,5.5,9.6,8.5
		c3,3,6.5,4.9,10.7,5.3c5.8,0.6,10.4,3,13.8,7.8c3.8,5.3,9.6,7.2,15.5,8.2c6.8,1.2,13.8,1.8,21.2,2.7c-5.8-0.3-11.1-0.1-16.2-0.8
		c-5-0.7-10-2.1-14.8-3.2l0.9,1.2l-0.5,0.8c-2.8-1.7-5.6-3.3-8.3-5c-2.8-1.7-5.2-3.8-8.1-5.1c-2.9-1.3-6.2-1.8-9.3-2.6l0.4-1.4
		l17.9,6.3c-0.7-2.3-4-5.9-7.8-6.2c-9.5-0.6-16.2-5.8-22.5-12.2c-3.6-3.7-7.9-6.1-13.6-4c-3.2,1.2-6-0.3-7.6-3.2
		c-2.7-4.6-6-4-9.4-0.6c-1.4,1.3-2.4,2.9-3.2,4.6c1.2-0.9,2.5-1.8,3.7-2.6s2.5-1.6,3.8-2.5c0.6,3.9,0,5.4-3,6.9
		c-2.4,1.2-2.7,3.2-2.7,5.4c0,1.4,0,2.7,0,4.1c7-0.1,10.1-4.3,12.7-9.6l-3,7.8c2.2-1.9,3.8-3.3,5.5-4.6c1.5-1.1,3-2.1,4.7-2.7
		c0.8-0.3,2.6,0.2,3,0.8c1.9,3.6,3.5,7.3,5.1,10.9L127.5,49.8z M92.8,52.2l5.4-4.6l-2.1-2.9L92.8,52.2z"/>
	<path class="st0" d="M3.2,62.7l21.4-12.8l0.7,2.5c3.8-4,7.4-8,13.5-8.8c-2.8,2.6-6.8,4-6,8.7l-2.6,0.2L27,57.9c0.8,3.2,0,4-4.5,3.2
		c-4.6-0.9-9.3-2.1-13.7,1.2C7.7,63,5.7,62.5,3.2,62.7z"/>
	<path class="st0" d="M126.1,38.3l3.4,4L130,42l-2.3-4.4l0.6-0.4l13.5,12.3c-2.8,3.4,1.4,5.4,1.7,8.2c0,0-0.3,0.1-0.3,0.1
		c-4.1-5.6-8.7-10.5-14.5-14.4c-1.5-1-2.2-3.1-3.3-4.6L126.1,38.3z"/>
</g>
</svg>
