<svg id="Layer_1" data-name="Layer 1" xmlns="http://www.w3.org/2000/svg" viewBox="0 0 157.31 143.1"><defs><style>.cls-1{fill:#fff;}</style></defs><title>logo</title><path class="cls-1" d="M19.76,73.48v33.11A94.81,94.81,0,0,0,30,104.14V9.27H67.33a61.3,61.3,0,0,1,24.59,4.64,51,51,0,0,1,18,12.9,56.07,56.07,0,0,1,11.19,19.65,74.29,74.29,0,0,1,3.57,18.08q5-2.53,9.78-5.24A85.11,85.11,0,0,0,131,43.64c-.56-1.71-1.67-4.45-2.34-6.07-3.87-.58-7.3,0-11.25-.35,3.46-.65,7.28-.14,10.81-.45A69.53,69.53,0,0,0,118.32,21,59.88,59.88,0,0,0,97.06,5.64Q84.26,0,67.33,0H19.76V72.2c1.34-1.23,2.71-2.89,4.11-4.06C22.46,70.21,21.1,71.39,19.76,73.48Z"/><path class="cls-1" d="M124.67,78.62A75.51,75.51,0,0,1,121.25,96a57.74,57.74,0,0,1-11,19.85,49.7,49.7,0,0,1-18,13.2q-10.79,4.74-24.89,4.74H30V116.33a87.51,87.51,0,0,1-9.18,1.19l-1.1.06V143.1H67.33A73.8,73.8,0,0,0,95.45,138a60.74,60.74,0,0,0,21.47-14.51,63.65,63.65,0,0,0,13.6-22.57,86.47,86.47,0,0,0,4.72-28.61q-3.61,2.32-7.28,4.46Q126.32,77.69,124.67,78.62Z"/><path class="cls-1" d="M23.87,68.14c-1.62,2.16-3.21,4.32-4.74,6.53s-3,4.41-4.46,6.67A85.49,85.49,0,0,0,7.26,95.26a25.87,25.87,0,0,0-1.9,7.07,8.07,8.07,0,0,0,.23,3,3.94,3.94,0,0,0,1.28,2,7,7,0,0,0,2.39,1.18,15.57,15.57,0,0,0,3.27.48,38.55,38.55,0,0,0,7.33-.47A109.42,109.42,0,0,0,35,105c5-1.54,10-3.25,15-5.09,9.94-3.69,19.81-7.75,29.61-12s19.59-8.56,29.24-13.08A313,313,0,0,0,137,60.16c2.24-1.36,4.42-2.77,6.51-4.26a43.67,43.67,0,0,0,5.73-4.79,16,16,0,0,0,2.1-2.61,4.61,4.61,0,0,0,.79-2.31,2.83,2.83,0,0,0-.95-1.91,10.29,10.29,0,0,0-2.71-1.82A33.28,33.28,0,0,0,141.25,40c-2.55-.59-5.16-1-7.8-1.4s-5.3-.65-8-.87-5.36-.41-8.05-.54a116.93,116.93,0,0,1,16.2-1.07,72.63,72.63,0,0,1,8.21.45,37.08,37.08,0,0,1,8.33,1.79,14.12,14.12,0,0,1,4.17,2.3,8.5,8.5,0,0,1,1.84,2.09,7.3,7.3,0,0,1,1,2.87,9.61,9.61,0,0,1-1,5.42A21.25,21.25,0,0,1,153.64,55,43.5,43.5,0,0,1,147.49,61c-2.16,1.79-4.37,3.49-6.65,5-4.53,3.15-9.19,6-13.93,8.71s-9.54,5.23-14.37,7.69-9.73,4.76-14.62,7.07S88.08,94,83.11,96.15s-10,4.18-15,6.18-10.15,3.85-15.31,5.58-10.39,3.34-15.72,4.68a102.79,102.79,0,0,1-16.42,3,41.73,41.73,0,0,1-8.76-.07,21.63,21.63,0,0,1-4.62-1.07,12.32,12.32,0,0,1-4.5-2.87,9.71,9.71,0,0,1-2.55-5,13.42,13.42,0,0,1,0-5,29.26,29.26,0,0,1,3-8.22,65.23,65.23,0,0,1,4.4-7.06c1.58-2.24,3.24-4.41,5-6.47A125.4,125.4,0,0,1,23.87,68.14Z"/></svg>