<svg xmlns="http://www.w3.org/2000/svg" viewBox="0 0 204.11 95.26"><defs><style>.cls-1{fill:#fff;}</style></defs><title>Mainstreet Arc White</title><g id="White"><path class="cls-1" d="M8.63,59.19a5.15,5.15,0,0,1,.42.42l0,0,0,0,.89.85q.43.4.69.69l.76.74q.4.39.85.77a11.71,11.71,0,0,0,.86.83l.9.81q1.27,1.11,2.55,2A9.36,9.36,0,0,0,19,67.68a2.08,2.08,0,0,0,1.48,0,2.23,2.23,0,0,0,1.1-1.42l.48-1.42,2.52,1.89-.17.49q-.93,2.72-2.61,3.39a5.24,5.24,0,0,1-3.78-.08,9.41,9.41,0,0,1-1-.4,10.54,10.54,0,0,1-1-.52q1.2,1.7,2.47,3.46t2.62,3.7l-1,3.07-8-5.15q1.75,2.18,3.43,4.44t3.25,4.67l-1.23,3.62-1.32-2q-.68-1-1.42-2l-1.52-2.08-1.55-2.09q-1.45-1.91-2.91-3.75L6.1,72.07l-.78-1L4.42,70,5.5,66.83l9,5.82L14.08,72l-.45-.62q-.21-.33-.44-.65l-.45-.62L10,66.3q-1.4-1.95-2.91-4.07l1.16-3.42Z"/><path class="cls-1" d="M31.92,55.08l-1.54,2.54a2.44,2.44,0,0,1-.59.68,3.17,3.17,0,0,1-.72.42,5.24,5.24,0,0,1-.12,1.09,5.13,5.13,0,0,1-.34,1q-.07.17-.15.34c-.06.11-.11.22-.18.32A3.89,3.89,0,0,1,27,62.8a3,3,0,0,1-1.87.42,4.19,4.19,0,0,1-.81-.17,3.33,3.33,0,0,1-.71-.33,4.05,4.05,0,0,1-1.16-1.06,6.06,6.06,0,0,1-.78-1.4,8.25,8.25,0,0,1-.5-4.75A14.61,14.61,0,0,1,22.84,51l.1-.17.12-.2,2.59,1.57a15.43,15.43,0,0,0-.9,1.72,8,8,0,0,0-.57,1.82,6.11,6.11,0,0,0-.12,1.68,5.22,5.22,0,0,0,.39,1.66l.08.16a1.9,1.9,0,0,0,.12.22l.1.19.13.2L25,60a.89.89,0,0,0,.17.14.35.35,0,0,0,.24,0,.38.38,0,0,0,.25-.21,2.05,2.05,0,0,0,.24-1.93,6.8,6.8,0,0,0-1-1.69l-.28-.31-.25-.29,2.3-2,1.46,1.67,1.7-2.8Z"/><path class="cls-1" d="M26.77,40.53A2.05,2.05,0,0,1,25,42.86a2,2,0,0,1-1.54-.43,2.09,2.09,0,0,1,1-3.71,2,2,0,0,1,1.52.43A2.08,2.08,0,0,1,26.77,40.53Zm9.57,8.93-1.69,2.17a2.4,2.4,0,0,1-1.72,1,2.48,2.48,0,0,1-1.82-.53l-.17-.15-.17-.15-.12-.17-.14-.19-3.85-5.65,2-2.53,4.07,6,1.86-2.39Z"/><path class="cls-1" d="M45.65,39.67l-1.49,1.49a2.42,2.42,0,0,1-1.82.77,2.47,2.47,0,0,1-1.75-.76,2.28,2.28,0,0,1-.28-.35c-.09-.13-.17-.26-.24-.39l-.21-.38-.18-.36L39.29,39l-.39-.74a.61.61,0,0,0-.05-.12l-.08-.1a2.63,2.63,0,0,0-.16-.31l-.21-.31a3.32,3.32,0,0,0-.2.63,5,5,0,0,0-.11.84,10.6,10.6,0,0,0,.09,2.37,9.24,9.24,0,0,0,.63,2.3l1,1.95-2.25,2.24-4.72-9.28,2.25-2.24.3.61a5.94,5.94,0,0,1,.26-.71,3.58,3.58,0,0,1,.37-.65,1.59,1.59,0,0,1,.19-.3l.24-.26a3,3,0,0,1,.39-.32,2.66,2.66,0,0,1,2.1-.38,3.52,3.52,0,0,1,1.45.89,5.11,5.11,0,0,1,.63.78,8.73,8.73,0,0,1,.58,1,3.16,3.16,0,0,0,.2.42l.23.4.08.16a.37.37,0,0,0,.08.12,1.72,1.72,0,0,0,.15.28,1.75,1.75,0,0,1,.15.28l1.73-1.73Z"/><path class="cls-1" d="M51.81,33.3a4.45,4.45,0,0,1-1.88,3L47.47,38.2l-1.05-3,1.68-1.28a1.6,1.6,0,0,0,.71-1,1.65,1.65,0,0,0-.43-1.19,3.45,3.45,0,0,0-.56-.59,3.23,3.23,0,0,0-.61-.4q0,1,0,1.68a6.07,6.07,0,0,0,0,.72l-3,.07q-.06-2.26-.07-3.63t-.08-2.48q0-1.14,0-1.16l3-.57s0,.24,0,.64,0,.88,0,1.47a6.37,6.37,0,0,1,2,.89,6.64,6.64,0,0,1,1.64,1.53A4.57,4.57,0,0,1,51.81,33.3Z"/><path class="cls-1" d="M57,23.42l-1.39.84.9,3.92L59.6,26.3l.73,3.1-2.93,1.77a2.34,2.34,0,0,1-1.91.3A2.42,2.42,0,0,1,54,30.35a1.41,1.41,0,0,1-.09-.18,1.7,1.7,0,0,0-.11-.2l-.07-.23-.05-.2-.84-3.64-1.47.89-.7-3.11,1.44-.87-.85-3.66,2.95-.67.63,2.69,1.39-.84Z"/><path class="cls-1" d="M68.13,18a4.28,4.28,0,0,0-.3.67q-.18.48-.36,1.07a3.25,3.25,0,0,0-.11.35,3.43,3.43,0,0,1-.11.35q-.15.64-.22,1.15a1.49,1.49,0,0,0,0,.77.41.41,0,0,0,.18.14.36.36,0,0,0,.27,0l3.12-1.4L71,24.26l-.49.22-.63.28-.63.28-.49.22A3.69,3.69,0,0,1,67,25.6a3,3,0,0,1-1.68-.65,2.76,2.76,0,0,1-.29-.27,2.22,2.22,0,0,1-.25-.33,1.54,1.54,0,0,1-.22-.3q-.09-.16-.16-.33A4.53,4.53,0,0,1,64,21.8a9.94,9.94,0,0,1,.21-2l-.45.2-.15.08-.13.11a1.46,1.46,0,0,0-.39.56,1.69,1.69,0,0,0-.14.65.18.18,0,0,0,0,.09.24.24,0,0,0,0,.08l.06.74-3,.31-.62-5.49,3-.32,0,.43,5.49-2.47,1.25,2.79Z"/><path class="cls-1" d="M82.68,20.62l-6.4,1.85a3.46,3.46,0,0,1-1.58.09,2.49,2.49,0,0,1-1.37-.73,2.87,2.87,0,0,1-.47-.63,3.52,3.52,0,0,1-.31-.74,1.35,1.35,0,0,1,0-.19,1.61,1.61,0,0,0,0-.22,6.09,6.09,0,0,1-.09-1.26q0-.66.08-1.22a8.14,8.14,0,0,1,.84-2.77,7,7,0,0,1,1.46-1.94,4.73,4.73,0,0,1,.7-.6,4.93,4.93,0,0,1,.72-.42l.34-.15.38-.13a3.73,3.73,0,0,1,2.34.05,2.28,2.28,0,0,1,1.48,1.61,2.77,2.77,0,0,1,.09,1.09,5.08,5.08,0,0,1-.51,1.88,11.65,11.65,0,0,1-1.53,2.4l4.05-1.17Zm-6.53-4.86a5.22,5.22,0,0,0-.69,2,.06.06,0,0,1,0,0,.06.06,0,0,0,0,0,13,13,0,0,0,1.65-2.05,5.28,5.28,0,0,0,.66-1.42A2.94,2.94,0,0,0,76.15,15.76Z"/><path class="cls-1" d="M94.36,18.75l-6.6.94a3.46,3.46,0,0,1-1.58-.13,2.49,2.49,0,0,1-1.26-.92,2.87,2.87,0,0,1-.38-.69,3.51,3.51,0,0,1-.2-.77,1.32,1.32,0,0,1,0-.2,1.6,1.6,0,0,0,0-.23,6.07,6.07,0,0,1,.08-1.26q.11-.65.25-1.19a8.15,8.15,0,0,1,1.21-2.63A7,7,0,0,1,87.57,10a4.65,4.65,0,0,1,.78-.5,4.93,4.93,0,0,1,.77-.31l.36-.1L89.87,9a3.73,3.73,0,0,1,2.31.38,2.27,2.27,0,0,1,1.25,1.8,2.86,2.86,0,0,1,0,.51,2.9,2.9,0,0,1-.09.58A5.09,5.09,0,0,1,92.6,14a11.64,11.64,0,0,1-1.85,2.16l4.18-.6ZM88.57,13a5.22,5.22,0,0,0-1,1.9.07.07,0,0,1,0,0,.06.06,0,0,0,0,0,13,13,0,0,0,1.92-1.8,5.28,5.28,0,0,0,.85-1.31A2.94,2.94,0,0,0,88.57,13Z"/><path class="cls-1" d="M102.77,11.64l-1.62,0L100,15.53l3.64-.08-.91,3-3.42.08a2.34,2.34,0,0,1-1.8-.69,2.42,2.42,0,0,1-.73-1.7,1.38,1.38,0,0,1,0-.2,1.64,1.64,0,0,0,0-.23l.06-.23.06-.2L98,11.75l-1.71,0,.94-3,1.68,0L100,5.1l2.89.88-.8,2.65,1.62,0Z"/><path class="cls-1" d="M132.54,12.62A23,23,0,0,1,130,14.19l-.81.43-.84.42L127,12.32l.34-.17.34-.17a24.31,24.31,0,0,0,2.7-1.57,13.15,13.15,0,0,0,1.95-1.57l.16-.18.24-.29.07-.08a.13.13,0,0,0,0-.06l.26-.35a.82.82,0,0,0,.14-.25v0l0,0a.65.65,0,0,0-.26-.24,1.77,1.77,0,0,0-.4-.15,2.78,2.78,0,0,0-.67-.07,4.33,4.33,0,0,0-.81.08,4.18,4.18,0,0,0-.59.09l-.57.16-.71.2-.55.18q-.47.13-1,.33l-1,.42a24.23,24.23,0,0,0-4.21,2.52,10.6,10.6,0,0,0-3.13,3.48,4.18,4.18,0,0,0-.23.48q-.12.29-.22.58l0,.12,0,.12a2.75,2.75,0,0,0-.05,1.1,1.12,1.12,0,0,0,.61.83l.55.25a3.59,3.59,0,0,0,.54.18,5.44,5.44,0,0,0,3.11-.15,21.47,21.47,0,0,0,3-1.25l.1-.09.12,0,.42-.61.42-.61,2.5,1.72q-2.25,3.25-4.8,6.34a36.16,36.16,0,0,1-5.7,5.55l-1.87-2.35a30.61,30.61,0,0,0,2.95-2.62q1.39-1.4,2.64-2.89a12.54,12.54,0,0,1-1.76.13,6.44,6.44,0,0,1-1.77-.25q-.47-.12-.92-.28a5.34,5.34,0,0,1-.92-.43,4,4,0,0,1-1.72-1.69,4.47,4.47,0,0,1-.51-2.39l0-.36a1.79,1.79,0,0,1,0-.32,1.58,1.58,0,0,1,0-.32L116,15l.07-.3a2,2,0,0,1,.11-.32,10.77,10.77,0,0,1,3.35-4.7,25.1,25.1,0,0,1,5.07-3.39q.83-.42,1.62-.76T127.7,5l.14,0,.14,0a16.61,16.61,0,0,1,2-.52A9.15,9.15,0,0,1,132,4.18l.66.05a4.71,4.71,0,0,1,1.87.6,3.52,3.52,0,0,1,1,.88,2.8,2.8,0,0,1,.66,1.3,3.1,3.1,0,0,1,0,1.31,3.13,3.13,0,0,1-.13.41l-.17.43a5.44,5.44,0,0,1-.62,1,9,9,0,0,1-.78.86A14.79,14.79,0,0,1,132.54,12.62Z"/><path class="cls-1" d="M142.92,23.76l-1.35-.58a5.75,5.75,0,0,1-3,2.09,5,5,0,0,1-3.62-.13l-.15-.07a.55.55,0,0,1-.14-.09l-.15-.08-.15-.08a4.11,4.11,0,0,1-1.88-2.46,4.56,4.56,0,0,1,.23-3.11,5.5,5.5,0,0,1,3-2.92,5.05,5.05,0,0,1,4.18,0,4.23,4.23,0,0,1,1.92,1.6,4.32,4.32,0,0,1,.71,2.34l2.53,1.09Zm-5.27-3.18a2.5,2.5,0,0,1,0-1.61,2.71,2.71,0,0,0-1.08.42,2.68,2.68,0,0,0-.81.8l0,.07,0,.07a.11.11,0,0,0-.06.06l0,.07a1.75,1.75,0,0,0-.06,1,1.13,1.13,0,0,0,.71.77,1.89,1.89,0,0,0,1.21.09,3,3,0,0,0,1.15-.54A2.44,2.44,0,0,1,137.65,20.58Z"/><path class="cls-1" d="M153.81,30.35l-1.25-.77a5.75,5.75,0,0,1-3.22,1.65,5,5,0,0,1-3.57-.65l-.14-.09a.53.53,0,0,1-.13-.11l-.14-.1-.14-.1a4.11,4.11,0,0,1-1.52-2.7,4.56,4.56,0,0,1,.67-3.05A5.5,5.5,0,0,1,147.77,22a5.05,5.05,0,0,1,4.14.55,4.23,4.23,0,0,1,1.68,1.85,4.32,4.32,0,0,1,.37,2.41l2.35,1.44ZM149,26.46a2.49,2.49,0,0,1,.21-1.59,2.72,2.72,0,0,0-1.13.26,2.67,2.67,0,0,0-.92.68l0,.06,0,.06a.1.1,0,0,0-.07,0l0,.06a1.75,1.75,0,0,0-.21,1,1.13,1.13,0,0,0,.6.87,1.89,1.89,0,0,0,1.19.26,3,3,0,0,0,1.21-.37A2.44,2.44,0,0,1,149,26.46Z"/><path class="cls-1" d="M162.22,37.16l-.25.19a1.51,1.51,0,0,0-.27.25.82.82,0,0,0-.12.2,1.29,1.29,0,0,0-.08.23.55.55,0,0,0,.07.3,1.7,1.7,0,0,0,.18.27.26.26,0,0,0,.07.1l.09.08,1.52,1.28-2.69,1.69L160,41.1a4.37,4.37,0,0,1-1.06-1.31,3.56,3.56,0,0,1-.42-1.65,6.22,6.22,0,0,1-1.67-.24,4.71,4.71,0,0,1-1.43-.68,1,1,0,0,1-.2-.12L155,37a3.31,3.31,0,0,1-1.41-2.62,4,4,0,0,1,1-2.53l.28-.31.28-.26a6,6,0,0,1,.66-.5,7.55,7.55,0,0,1,.71-.42,7.16,7.16,0,0,1,3.3-.68,5.22,5.22,0,0,1,3.33,1.29l1.43,1.2,8-5,2.44,2Zm-1-3.95a2.61,2.61,0,0,0-2-.57,3.76,3.76,0,0,0-2,.75l-.09.08-.09.08a1.27,1.27,0,0,0-.34.53q-.07.24.29.54l.08.07.08.07a2.62,2.62,0,0,0,1.54.4,3.41,3.41,0,0,0,1.56-.39l.11-.06.11-.06,1.44-.87Z"/><path class="cls-1" d="M167.42,47.06a4.45,4.45,0,0,1-3.2-1.59l-2.09-2.27L165,41.87l1.43,1.55a1.6,1.6,0,0,0,1.08.61,1.65,1.65,0,0,0,1.15-.54,3.47,3.47,0,0,0,.53-.62,3.24,3.24,0,0,0,.34-.65l-1.67.19a5.92,5.92,0,0,0-.72.1l-.35-3q2.24-.27,3.61-.41t2.46-.31c.75-.08,1.14-.13,1.15-.15l.85,2.91-.63.08-1.46.18a6.37,6.37,0,0,1-.7,2.11,6.63,6.63,0,0,1-1.37,1.78A4.57,4.57,0,0,1,167.42,47.06Z"/><path class="cls-1" d="M197,64.74a3.16,3.16,0,0,1-1,.86,3.73,3.73,0,0,1-.42.19,3,3,0,0,1-.45.13,6.13,6.13,0,0,1-1.46.21,13.37,13.37,0,0,1-1.45,0,17,17,0,0,1-1.78-.27q-.95-.19-1.92-.47a29.44,29.44,0,0,1-2.93-.95q-1.49-.56-2.9-1.21l-.1,0-.12-.06,1.26-2.73q1.15.54,2.35,1t2.36.81q1.11.35,2.13.57a17,17,0,0,0,1.89.32l.32,0a4.18,4.18,0,0,0,.53,0h.27a3.52,3.52,0,0,0,.59,0,1.3,1.3,0,0,0,.38-.1h0v0a.92.92,0,0,0,0-.43,2,2,0,0,0-.17-.41,2.69,2.69,0,0,0-.36-.52,4.44,4.44,0,0,0-.47-.46l-.58-.44q-.28-.21-.59-.4l-.64-.36-.48-.26q-.47-.24-1-.48a11.8,11.8,0,0,0-1.18-.43,20.54,20.54,0,0,0-3.61-.9,10.8,10.8,0,0,0-3.62,0,6,6,0,0,0-.92.22,5.53,5.53,0,0,0-.85.36,2.54,2.54,0,0,0-1,.9,1.26,1.26,0,0,0,.07,1.29l.91,1.73,1,2,1,2L183,68l-3.13.54-.79-1.5-.92-1.75-.94-1.79-.8-1.52a4.16,4.16,0,0,1-.3-3.62,5.18,5.18,0,0,1,2.51-2.68l.33-.16.33-.16a11.43,11.43,0,0,1,5.86-.65,23.39,23.39,0,0,1,5.93,1.53l.78.33.75.35.19.09a.54.54,0,0,1,.16.11,17.3,17.3,0,0,1,1.85,1.15,7.35,7.35,0,0,1,1.6,1.53,5,5,0,0,1,.35.47,5.73,5.73,0,0,1,.3.5A4.61,4.61,0,0,1,197.5,62a3.87,3.87,0,0,1,0,1.35A2.81,2.81,0,0,1,197,64.74Z"/><path class="cls-1" d="M188.86,80.75l-.47-1.39a5.75,5.75,0,0,1-3.53-.8,5,5,0,0,1-2.32-2.79l-.05-.16a.53.53,0,0,1,0-.17.8.8,0,0,1,0-.16.86.86,0,0,0,0-.16,4.1,4.1,0,0,1,.57-3,4.55,4.55,0,0,1,2.47-1.91,5.5,5.5,0,0,1,4.17.28,5.05,5.05,0,0,1,2.82,3.08,4.23,4.23,0,0,1,.1,2.5,4.32,4.32,0,0,1-1.27,2.09l.87,2.61Zm-1.16-6a2.49,2.49,0,0,1,1.18-1.09,2.72,2.72,0,0,0-1-.52,2.68,2.68,0,0,0-1.14-.07l-.07,0-.07,0a.1.1,0,0,0-.08,0l-.07,0a1.76,1.76,0,0,0-.82.64,1.13,1.13,0,0,0-.1,1,1.89,1.89,0,0,0,.74,1,3,3,0,0,0,1.17.5A2.44,2.44,0,0,1,187.7,74.71Z"/><path class="cls-1" d="M186,86.31a1.77,1.77,0,0,1-.8-1.15,1.73,1.73,0,0,1,.25-1.35,1.77,1.77,0,0,1,1.15-.8,1.72,1.72,0,0,1,1.37.24,1.76,1.76,0,0,1,.78,1.13,1.8,1.8,0,0,1-.23,1.38,1.72,1.72,0,0,1-1.14.8A1.77,1.77,0,0,1,186,86.31Z"/><path class="cls-1" d="M70,50.55l-2.86,1.39-.68-1.4,2.86-1.39Z"/><path class="cls-1" d="M72.61,42.14l5.9-2,.59,1.77-4,1.33.54,1.62,3.76-1.26L80,45.39l-3.76,1.26.59,1.77L81,47l.59,1.77-6.12,2Z"/><path class="cls-1" d="M85.2,43.38A1.37,1.37,0,0,0,84,43.12a1.06,1.06,0,0,0-.44.22.41.41,0,0,0-.13.44.36.36,0,0,0,.31.28,3.15,3.15,0,0,0,.64.05h.81a3,3,0,0,1,.84.12,1.77,1.77,0,0,1,.72.41,1.68,1.68,0,0,1,.45.87,1.76,1.76,0,0,1,0,1,2,2,0,0,1-.52.77,2.92,2.92,0,0,1-.83.54,5.58,5.58,0,0,1-1,.33,5,5,0,0,1-1.34.12,2.49,2.49,0,0,1-1.26-.39l.85-1.54a2,2,0,0,0,.7.36,1.62,1.62,0,0,0,.79,0,1.81,1.81,0,0,0,.57-.23.36.36,0,0,0,.18-.41.39.39,0,0,0-.32-.3,2.66,2.66,0,0,0-.64-.06h-.81a3.26,3.26,0,0,1-.83-.1,1.65,1.65,0,0,1-.72-.4,1.67,1.67,0,0,1-.45-.87,1.92,1.92,0,0,1,0-1,2,2,0,0,1,.43-.78,2.57,2.57,0,0,1,.74-.56,3.89,3.89,0,0,1,.92-.34,4.54,4.54,0,0,1,1.26-.11,2.32,2.32,0,0,1,1.19.38Z"/><path class="cls-1" d="M91.93,41.9l-1.69.27.33,2.07a4,4,0,0,0,.1.46,1,1,0,0,0,.17.35.59.59,0,0,0,.31.19,1.23,1.23,0,0,0,.5,0l.4-.1a.69.69,0,0,0,.35-.21l.25,1.6a3,3,0,0,1-.64.26,6.35,6.35,0,0,1-.67.15,3.75,3.75,0,0,1-.91,0,2.06,2.06,0,0,1-.77-.21,1.54,1.54,0,0,1-.57-.51,2,2,0,0,1-.31-.84l-.46-2.95-1.23.19-.24-1.53,1.23-.19-.29-1.84,1.92-.3L90,40.63l1.69-.27Z"/><path class="cls-1" d="M93.47,45.38a1.21,1.21,0,0,1,0-.47,1.14,1.14,0,0,1,.57-.69,1.25,1.25,0,0,1,.93-.09,1.14,1.14,0,0,1,.69.57,1.21,1.21,0,0,1,.14.45,1.22,1.22,0,0,1,0,.47,1.15,1.15,0,0,1-.57.69,1.22,1.22,0,0,1-.45.13,1.2,1.2,0,0,1-.47,0,1.14,1.14,0,0,1-.69-.57A1.21,1.21,0,0,1,93.47,45.38Z"/><path class="cls-1" d="M100.9,43.91l3.64-3.1a6.67,6.67,0,0,0,.56-.54,1.06,1.06,0,0,0,.29-.72.88.88,0,0,0-.32-.74,1.24,1.24,0,0,0-.78-.29,1.08,1.08,0,0,0-.85.31,1.36,1.36,0,0,0-.36.82l-1.93-.19a3.15,3.15,0,0,1,.33-1.23,2.59,2.59,0,0,1,.71-.85,2.89,2.89,0,0,1,1-.5,4.27,4.27,0,0,1,1.25-.14,3.79,3.79,0,0,1,1.16.21,2.72,2.72,0,0,1,.93.54,2.35,2.35,0,0,1,.6.88,3,3,0,0,1,.19,1.21,3.24,3.24,0,0,1-.11.79,2.69,2.69,0,0,1-.27.64,3,3,0,0,1-.4.53,6.3,6.3,0,0,1-.49.47l-2.84,2.32,4.06.11,0,1.71L100.85,46Z"/><path class="cls-1" d="M108.63,41.64A9.47,9.47,0,0,1,109,40a4.84,4.84,0,0,1,.72-1.45,3.15,3.15,0,0,1,1.17-1,3.48,3.48,0,0,1,3.33.42,3.16,3.16,0,0,1,.89,1.24,4.84,4.84,0,0,1,.34,1.58,9.28,9.28,0,0,1-.41,3.28,4.84,4.84,0,0,1-.72,1.45,3.16,3.16,0,0,1-1.17,1,3.48,3.48,0,0,1-3.33-.42,3.15,3.15,0,0,1-.89-1.24,4.84,4.84,0,0,1-.34-1.58A9.43,9.43,0,0,1,108.63,41.64Zm1.92.24q0,.36-.08.86a4.25,4.25,0,0,0,.05,1,2.06,2.06,0,0,0,.33.84,1.2,1.2,0,0,0,1.62.2A2,2,0,0,0,113,44a4.28,4.28,0,0,0,.29-.94q.09-.5.14-.86t.08-.86a4.25,4.25,0,0,0-.05-1,2,2,0,0,0-.34-.84,1.2,1.2,0,0,0-1.62-.2,2,2,0,0,0-.53.73,4.21,4.21,0,0,0-.29.94Q110.6,41.52,110.55,41.88Z"/><path class="cls-1" d="M120.21,41.07l-2.15,1.17-.79-1.48L120.74,39l1.76.4-2,8.92-1.81-.42Z"/><path class="cls-1" d="M127.68,44.31l.31,0,.31.08a2.89,2.89,0,0,1,1,.6,2.72,2.72,0,0,1,.65.89,2.84,2.84,0,0,1,.25,1.09,3.3,3.3,0,0,1-.18,1.17A3,3,0,0,1,128.41,50a3.25,3.25,0,0,1-1.23.26,4.09,4.09,0,0,1-2.54-.86,3.26,3.26,0,0,1-.82-1,3,3,0,0,1-.37-1.17,3,3,0,0,1,.16-1.3,4.17,4.17,0,0,1,.37-.82,4.76,4.76,0,0,1,.47-.65A4.92,4.92,0,0,1,125,44l.61-.51,2.9-2.32,2.24.76Zm.58,3.17a1.39,1.39,0,0,0-.06-1.1,1.6,1.6,0,0,0-2-.68,1.5,1.5,0,0,0-.66,1.95,1.6,1.6,0,0,0,2,.68A1.39,1.39,0,0,0,128.26,47.48Z"/><path class="cls-1" d="M137,51.93l-2.86-1.39.68-1.4,2.86,1.39Z"/></g></svg>