<svg id="Layer_1" data-name="Layer 1" xmlns="http://www.w3.org/2000/svg" viewBox="0 0 182.28 92.27"><defs><style>.cls-1{fill:#fff;}</style></defs><title>slash</title><path class="cls-1" d="M27.66,37.09c-1.88,2.5-3.72,5-5.49,7.57S18.65,49.78,17,52.4a99.06,99.06,0,0,0-8.6,16.12,30,30,0,0,0-2.21,8.2,9.35,9.35,0,0,0,.27,3.53A4.56,4.56,0,0,0,8,82.54a8.06,8.06,0,0,0,2.77,1.36,18,18,0,0,0,3.79.56A44.67,44.67,0,0,0,23,83.92,126.79,126.79,0,0,0,40.5,79.75C46.32,78,52.12,76,57.88,73.86c11.52-4.28,23-9,34.31-13.89s22.7-9.91,33.88-15.16a362.73,362.73,0,0,0,32.64-17c2.6-1.57,5.12-3.21,7.54-4.94a50.6,50.6,0,0,0,6.64-5.55,18.51,18.51,0,0,0,2.44-3,5.34,5.34,0,0,0,.92-2.67,3.28,3.28,0,0,0-1.1-2.22A11.93,11.93,0,0,0,172,7.31a38.56,38.56,0,0,0-8.33-2.8c-3-.68-6-1.17-9-1.62s-6.14-.76-9.24-1-6.21-.47-9.33-.63A135.5,135.5,0,0,1,154.85,0a84.16,84.16,0,0,1,9.51.52A43,43,0,0,1,174,2.6a16.36,16.36,0,0,1,4.83,2.66A9.85,9.85,0,0,1,181,7.68,8.46,8.46,0,0,1,182.2,11,11.14,11.14,0,0,1,181,17.29a24.63,24.63,0,0,1-3,4.56,50.41,50.41,0,0,1-7.13,7c-2.51,2.08-5.07,4-7.71,5.84-5.25,3.66-10.65,7-16.14,10.09S136,50.84,130.41,53.7s-11.27,5.52-16.94,8.19-11.4,5.17-17.16,7.65S84.74,74.39,78.9,76.7s-11.76,4.47-17.74,6.46-12,3.87-18.22,5.42a119.11,119.11,0,0,1-19,3.45A48.35,48.35,0,0,1,13.77,92a25.07,25.07,0,0,1-5.36-1.24A14.28,14.28,0,0,1,3.2,87.41a11.26,11.26,0,0,1-3-5.75A15.55,15.55,0,0,1,.3,75.9a33.9,33.9,0,0,1,3.49-9.52,75.59,75.59,0,0,1,5.1-8.18c1.83-2.6,3.76-5.1,5.8-7.5A145.31,145.31,0,0,1,27.66,37.09Z"/></svg>