<?xml version="1.0" encoding="utf-8"?>
<!-- Generator: Adobe Illustrator 21.0.0, SVG Export Plug-In . SVG Version: 6.00 Build 0)  -->
<svg version="1.1" id="Layer_1" xmlns="http://www.w3.org/2000/svg" xmlns:xlink="http://www.w3.org/1999/xlink" x="0px" y="0px"
	 viewBox="0 0 204.1 95.3" style="enable-background:new 0 0 204.1 95.3;" xml:space="preserve">
<style type="text/css">
	.st0{fill:#FFFFFF;}
</style>
<title>Mainstreet Arc White</title>
<g>
	<g>
		<path class="st0" d="M102.1,90.6L56.9,45.5l45.2-45.2l45.2,45.2L102.1,90.6z M57.9,45.5l44.2,44.1l44.2-44.1L102.1,1.3L57.9,45.5z
			"/>
		<path class="st0" d="M102.1,90.9l-0.1-0.1L56.6,45.5l0.1-0.1L102.1,0l0.1,0.1l45.3,45.3l-0.1,0.1L102.1,90.9z M57.2,45.5
			l44.9,44.9l44.9-44.9L102.1,0.6L57.2,45.5z M102.1,89.9l-0.1-0.1L57.6,45.5l0.1-0.1L102.1,1l0.1,0.1l44.3,44.3l-0.1,0.1
			L102.1,89.9z M58.2,45.5l43.9,43.8l43.9-43.8L102.1,1.6L58.2,45.5z"/>
	</g>
	<g>
		<path class="st0" d="M102.1,95L56.9,49.8l45.2-45.1l45.2,45.2L102.1,95z M57.9,49.8L102.1,94l44.2-44.2L102.1,5.7L57.9,49.8z"/>
		<path class="st0" d="M102.1,95.3L56.6,49.8l0.1-0.1l45.3-45.3l0.1,0.1l45.3,45.3l-0.1,0.1L102.1,95.3z M57.2,49.8l44.9,44.9
			l44.9-44.9L102.1,5L57.2,49.8z M102.1,94.3L57.6,49.8l0.1-0.1l44.3-44.3l0.1,0.1l44.3,44.3L102.1,94.3z M58.2,49.8l43.9,43.9
			l43.9-43.9L102.1,6L58.2,49.8z"/>
	</g>
	<g>
		<path class="st0" d="M132.3,77.9H68.4V14h63.9V77.9z M69.1,77.2h62.4V14.7H69.1V77.2z"/>
		<path class="st0" d="M132.5,78.1H68.2V13.8h64.3V78.1z M68.6,77.7h63.5V14.2H68.6V77.7z M131.8,77.4H68.9V14.5h62.8V77.4z
			 M69.3,77h62v-62h-62V77z"/>
	</g>
	<g>
		<path class="st0" d="M135.7,81.3H71.8V17.4h63.9V81.3z M72.5,80.5H135V18H72.5L72.5,80.5z"/>
		<path class="st0" d="M135.9,81.5H71.6V17.2h64.3V81.5z M72,81.1h63.5V17.6H72V81.1z M135.2,80.7H72.3v-0.2l0-62.7h62.8V80.7z
			 M72.7,80.3h62.1V18.2h-62L72.7,80.3z"/>
	</g>
	<g>
		<path class="st0" d="M128.9,74.5H75.2V20.8h53.7V74.5z M75.8,73.8h52.4V21.4H75.8V73.8z"/>
		<path class="st0" d="M129.1,74.7H75V20.6h54.1V74.7z M75.4,74.3h53.3V21H75.4V74.3z M128.5,74H75.6V21.1h52.8V74z M76,73.6h52v-52
			H76V73.6z"/>
	</g>
</g>
</svg>
