<svg id="Layer_1" data-name="Layer 1" xmlns="http://www.w3.org/2000/svg" viewBox="0 0 1020 416"><defs><style>.cls-1,.cls-2,.cls-3{fill:#fff;}.cls-2{font-size:138.44px;}.cls-2,.cls-3{font-family:CourierNewPSMT, Courier New;}.cls-3{font-size:99.13px;}</style></defs><title>tyrian-logo</title><path class="cls-1" d="M162.21,329.77,31.08,198.64,162.21,67.51,293.34,198.64ZM34.16,198.64,162.21,326.69,290.26,198.64,162.21,70.59Z"/><path class="cls-1" d="M162.2,342.54,31.07,211.41,162.2,80.28,293.33,211.41ZM34.15,211.41,162.2,339.46,290.26,211.41,162.2,83.35Z"/><path class="cls-1" d="M250.07,292.89H64.63V107.44H250.07ZM66.8,290.71H247.9V109.62H66.8Z"/><path class="cls-1" d="M259.8,302.61H74.35V117.17H259.8ZM76.53,300.44H257.62V119.34H76.53Z"/><path class="cls-1" d="M240.15,283H84.27V127.09H240.15Zm-153.7-2.18H238V129.26H86.45Z"/><text class="cls-2" transform="translate(318.52 164.76)">Tyrian</text><text class="cls-3" transform="translate(334.57 292.62)">Photography</text></svg>