<svg id="Layer_1" data-name="Layer 1" xmlns="http://www.w3.org/2000/svg" viewBox="0 0 1020 416"><defs><style>.cls-1{fill:#fff;}</style></defs><title>mainstreet-logo</title><path class="cls-1" d="M160.06,258.57a19.69,19.69,0,0,1,1.6,1.59.24.24,0,0,1,.15.11.24.24,0,0,0,.15.11q1.75,1.7,3.37,3.23t2.6,2.6q1.38,1.33,2.89,2.82T174,272a45.15,45.15,0,0,0,3.28,3.14q1.75,1.52,3.42,3.06,4.81,4.21,9.67,7.71a35.4,35.4,0,0,0,9,4.92,7.88,7.88,0,0,0,5.62,0q2.55-1,4.16-5.38l1.83-5.38,9.55,7.17L220,289.1q-3.51,10.31-9.89,12.85t-14.34-.3a35.73,35.73,0,0,1-3.71-1.51,39.7,39.7,0,0,1-3.67-2q4.54,6.44,9.36,13.11t9.91,14l-4,11.62-30.42-19.55q6.61,8.26,13,16.85t12.32,17.72l-4.67,13.71-5-7.45q-2.56-3.81-5.39-7.71t-5.75-7.9q-2.92-4-5.86-7.94-5.48-7.26-11-14.22t-10.43-13q-1.45-1.84-3-3.7l-3.4-4.22,4.08-12,34.22,22.07-1.7-2.36L179,304.87q-.8-1.25-1.67-2.47L175.6,300l-10.47-14.53q-5.32-7.38-11-15.45l4.41-12.94Q159.26,257.87,160.06,258.57Z"/><path class="cls-1" d="M248.26,243.17l-5.83,9.61a9.29,9.29,0,0,1-2.24,2.57,11.89,11.89,0,0,1-2.73,1.6,19.71,19.71,0,0,1-.47,4.12,19.35,19.35,0,0,1-1.28,3.9q-.26.65-.57,1.28t-.67,1.22a14.76,14.76,0,0,1-4.9,5,11.56,11.56,0,0,1-7.07,1.6,15.85,15.85,0,0,1-3.07-.64,12.59,12.59,0,0,1-2.71-1.24,15.36,15.36,0,0,1-4.4-4,23,23,0,0,1-2.94-5.31,31.25,31.25,0,0,1-1.88-18,55.37,55.37,0,0,1,6.36-17.08l.39-.64.45-.74,9.81,5.95a58.78,58.78,0,0,0-3.42,6.53,30.59,30.59,0,0,0-2.15,6.89,23.16,23.16,0,0,0-.47,6.36,19.77,19.77,0,0,0,1.46,6.3,5.85,5.85,0,0,1,.32.6,7.41,7.41,0,0,0,.45.82,6.24,6.24,0,0,0,.38.71l.48.77c.16.19.35.39.57.62a3.35,3.35,0,0,0,.63.52,1.31,1.31,0,0,0,.92.15,1.44,1.44,0,0,0,.95-.78q2.34-3.86.91-7.31a25.79,25.79,0,0,0-3.84-6.4c-.38-.41-.73-.8-1-1.18l-.95-1.12,8.72-7.45,5.51,6.33,6.43-10.6Z"/><path class="cls-1" d="M228.79,188a7.77,7.77,0,0,1-6.89,8.81,7.77,7.77,0,0,1-5.85-1.63A7.91,7.91,0,0,1,220,181.15a7.69,7.69,0,0,1,5.77,1.65A7.88,7.88,0,0,1,228.79,188Zm36.26,33.85-6.42,8.22a9.09,9.09,0,0,1-6.52,3.73,9.41,9.41,0,0,1-6.89-2,6.38,6.38,0,0,1-.65-.58,6.18,6.18,0,0,0-.65-.58l-.45-.65-.54-.72L228.34,207.9l7.49-9.58,15.4,22.62,7.06-9Z"/><path class="cls-1" d="M300.33,184.8l-5.67,5.64a9.19,9.19,0,0,1-6.89,2.93,9.35,9.35,0,0,1-6.63-2.88,8.56,8.56,0,0,1-1.06-1.31c-.33-.49-.63-1-.9-1.48s-.53-1-.77-1.44-.48-.91-.69-1.35l-1.47-2.79-1.47-2.79a2.37,2.37,0,0,0-.2-.45,1.82,1.82,0,0,0-.28-.37,9.89,9.89,0,0,0-.61-1.19c-.24-.41-.5-.81-.77-1.19a12.34,12.34,0,0,0-.74,2.37,19.08,19.08,0,0,0-.42,3.2,40.29,40.29,0,0,0,.35,9,35,35,0,0,0,2.4,8.73l3.75,7.38-8.54,8.5L251.84,180.1l8.54-8.5,1.14,2.3a22.88,22.88,0,0,1,1-2.7,13.63,13.63,0,0,1,1.4-2.45,6.06,6.06,0,0,1,.74-1.15q.41-.49.9-1a11,11,0,0,1,1.48-1.23,8.13,8.13,0,0,1,1.64-.9,8.27,8.27,0,0,1,6.31-.56,13.38,13.38,0,0,1,5.48,3.37,19.21,19.21,0,0,1,2.37,3,32.79,32.79,0,0,1,2.2,3.94,12.32,12.32,0,0,0,.78,1.6c.3.52.59,1,.86,1.52.11.22.2.43.28.61a1.4,1.4,0,0,0,.29.45,6.38,6.38,0,0,0,.57,1.07,6.7,6.7,0,0,1,.57,1.07l6.57-6.54Z"/><path class="cls-1" d="M323.68,160.64q-.85,6.75-7.12,11.51l-9.32,7.07-4-11.38,6.37-4.83a6.08,6.08,0,0,0,2.68-3.85,6.26,6.26,0,0,0-1.61-4.52,13.2,13.2,0,0,0-2.13-2.24,12.17,12.17,0,0,0-2.31-1.52q.06,3.73.12,6.38a22.31,22.31,0,0,0,.12,2.74l-11.44.25q-.23-8.55-.26-13.76-.22-5.07-.28-9.38t-.14-4.4l11.29-2.17c0,.11,0,.91.08,2.41s.12,3.35.15,5.56a24.16,24.16,0,0,1,7.72,3.38,25.16,25.16,0,0,1,6.23,5.82Q324.53,153.89,323.68,160.64Z"/><path class="cls-1" d="M343.24,123.22,338,126.39l3.41,14.85,11.81-7.12,2.75,11.74-11.11,6.7a8.87,8.87,0,0,1-7.24,1.12,9.18,9.18,0,0,1-5.58-4.21,4.91,4.91,0,0,1-.34-.67,6.55,6.55,0,0,0-.4-.77c-.09-.3-.18-.59-.25-.86s-.14-.52-.19-.76l-3.17-13.78L322.11,136l-2.65-11.8,5.45-3.29L321.68,107l11.18-2.55,2.37,10.21,5.26-3.17Z"/><path class="cls-1" d="M385.56,102.85a16.09,16.09,0,0,0-1.14,2.54q-.7,1.84-1.36,4a12.89,12.89,0,0,0-.42,1.33,13.47,13.47,0,0,1-.42,1.33q-.57,2.41-.83,4.37a5.64,5.64,0,0,0,.16,2.91,1.54,1.54,0,0,0,.68.52,1.37,1.37,0,0,0,1-.14l11.84-5.31,1.31,12-1.85.83-2.38,1.07-2.38,1.07-1.85.83a14,14,0,0,1-6.75,1.24,11.43,11.43,0,0,1-6.37-2.47,10.51,10.51,0,0,1-1.1-1,8.42,8.42,0,0,1-.93-1.23,5.74,5.74,0,0,1-.83-1.15c-.23-.41-.43-.82-.62-1.24a17.19,17.19,0,0,1-1.48-7.27,37.67,37.67,0,0,1,.81-7.54l-1.69.76a3.4,3.4,0,0,0-.56.31,6.36,6.36,0,0,0-.51.42,5.58,5.58,0,0,0-1.46,2.12,6.45,6.45,0,0,0-.54,2.47.74.74,0,0,0,0,.34.94.94,0,0,0,.07.29l.25,2.81-11.41,1.18-2.34-20.79,11.52-1.23.09,1.61,20.83-9.34,4.74,10.57Z"/><path class="cls-1" d="M440.68,112.65l-24.26,7a13.14,13.14,0,0,1-6,.35,9.46,9.46,0,0,1-5.2-2.78,10.84,10.84,0,0,1-1.77-2.38,13.08,13.08,0,0,1-1.17-2.8,5.11,5.11,0,0,1-.16-.74,6.37,6.37,0,0,0-.18-.85,23.06,23.06,0,0,1-.36-4.78q.06-2.49.3-4.61a30.88,30.88,0,0,1,3.18-10.5,26.33,26.33,0,0,1,5.54-7.33A17.78,17.78,0,0,1,413.25,81,18.83,18.83,0,0,1,416,79.38c.43-.2.85-.39,1.29-.55s.91-.32,1.43-.47a14.14,14.14,0,0,1,8.86.21,8.62,8.62,0,0,1,5.62,6.09,11,11,0,0,1,.36,1.88,10.77,10.77,0,0,1,0,2.24,19.27,19.27,0,0,1-1.92,7.13,44.13,44.13,0,0,1-5.81,9.1l15.36-4.44ZM415.94,94.23a19.74,19.74,0,0,0-2.62,7.63.26.26,0,0,1,0,.18.22.22,0,0,0,0,.18,49.32,49.32,0,0,0,6.25-7.78,20,20,0,0,0,2.49-5.36A11.12,11.12,0,0,0,415.94,94.23Z"/><path class="cls-1" d="M484.83,105.6l-25,3.58a13.08,13.08,0,0,1-6-.49,9.45,9.45,0,0,1-4.77-3.47,10.87,10.87,0,0,1-1.42-2.6,13.5,13.5,0,0,1-.77-2.93,5,5,0,0,1,0-.75,7,7,0,0,0-.07-.87,23,23,0,0,1,.31-4.78q.41-2.46.93-4.52a30.82,30.82,0,0,1,4.6-10,26.28,26.28,0,0,1,6.5-6.49,17.78,17.78,0,0,1,2.95-1.89A18.75,18.75,0,0,1,465,69.23c.45-.14.9-.26,1.35-.37s.95-.2,1.48-.27A14.13,14.13,0,0,1,476.58,70a8.63,8.63,0,0,1,4.72,6.81,11,11,0,0,1,.1,1.92,10.62,10.62,0,0,1-.33,2.21,19.19,19.19,0,0,1-2.89,6.79,44.36,44.36,0,0,1-7,8.2L487,93.7ZM462.88,83.93a19.83,19.83,0,0,0-3.65,7.19.24.24,0,0,1,0,.18.24.24,0,0,0,0,.18,49,49,0,0,0,7.27-6.83,20,20,0,0,0,3.21-5A11.13,11.13,0,0,0,462.88,83.93Z"/><path class="cls-1" d="M516.71,78.65l-6.14.14-4.42,14.59,13.78-.31-3.45,11.55-13,.29a8.87,8.87,0,0,1-6.84-2.63,9.18,9.18,0,0,1-2.75-6.43,5.78,5.78,0,0,1,0-.75,5.67,5.67,0,0,0,0-.87c.07-.31.14-.6.21-.87s.14-.52.21-.76l4.1-13.53-6.49.15,3.57-11.55,6.37-.14,4.09-13.65,11,3.34-3,10,6.14-.14Z"/><path class="cls-1" d="M629.53,82.35a87.46,87.46,0,0,1-9.71,6q-1.52.82-3.09,1.62t-3.2,1.6l-5-10.3c.45-.21.88-.42,1.29-.64s.84-.43,1.29-.64A91.66,91.66,0,0,0,621.39,74a50.23,50.23,0,0,0,7.37-5.93l.59-.69.92-1.08.25-.3a.48.48,0,0,0,.11-.21l1-1.31a3.12,3.12,0,0,0,.53-.94l0-.11-.09-.14a2.46,2.46,0,0,0-1-.9,6.77,6.77,0,0,0-1.53-.56,10.61,10.61,0,0,0-2.56-.28,16.6,16.6,0,0,0-3.06.32,15.85,15.85,0,0,0-2.24.34q-1.14.25-2.18.59-1.4.37-2.7.76c-.86.27-1.55.49-2.08.68a37.93,37.93,0,0,0-3.65,1.24q-1.85.73-3.73,1.58a91.78,91.78,0,0,0-16,9.54,40.23,40.23,0,0,0-11.85,13.18,15.59,15.59,0,0,0-.87,1.81c-.3.72-.58,1.45-.83,2.18l-.11.45-.11.45a10.45,10.45,0,0,0-.2,4.19,4.23,4.23,0,0,0,2.33,3.14q1.07.5,2.1.94a13.5,13.5,0,0,0,2,.68,20.66,20.66,0,0,0,11.77-.55A81.65,81.65,0,0,0,607,98.37a1.5,1.5,0,0,1,.38-.33,1.59,1.59,0,0,1,.46-.18c.5-.75,1-1.51,1.58-2.29S610.45,94,611,93.27l9.49,6.52q-8.54,12.33-18.18,24a137.18,137.18,0,0,1-21.61,21l-7.1-8.92A116.43,116.43,0,0,0,584.72,126q5.26-5.33,10-11a47.32,47.32,0,0,1-6.69.49,24.37,24.37,0,0,1-6.69-.94q-1.8-.44-3.5-1a20.41,20.41,0,0,1-3.48-1.63,15.2,15.2,0,0,1-6.53-6.39,17,17,0,0,1-1.93-9.07q.05-.7.09-1.35a6.76,6.76,0,0,1,.18-1.21,6.39,6.39,0,0,1,.18-1.21l.32-1.29.28-1.13a7.44,7.44,0,0,1,.42-1.21q3.4-9.9,12.7-17.81A95.22,95.22,0,0,1,599.29,58.4q3.14-1.61,6.14-2.89t5.73-2.16a3.15,3.15,0,0,0,.52-.17,3,3,0,0,1,.52-.17,62.92,62.92,0,0,1,7.53-2,34.64,34.64,0,0,1,7.92-.67q1.29.08,2.52.2a17.75,17.75,0,0,1,2.46.43,17.43,17.43,0,0,1,4.62,1.86A13.37,13.37,0,0,1,641,56.19a10.67,10.67,0,0,1,2.49,4.91,11.76,11.76,0,0,1-.16,5,12,12,0,0,1-.5,1.55q-.31.76-.64,1.63a20.49,20.49,0,0,1-2.34,3.66,34.51,34.51,0,0,1-3,3.27A56.19,56.19,0,0,1,629.53,82.35Z"/><path class="cls-1" d="M668.88,124.57l-5.1-2.2a21.81,21.81,0,0,1-11.18,7.92,18.76,18.76,0,0,1-13.73-.51l-.59-.25a1.92,1.92,0,0,1-.54-.36,3,3,0,0,1-.56-.31,3.45,3.45,0,0,0-.56-.31,15.56,15.56,0,0,1-7.14-9.33,17.28,17.28,0,0,1,.87-11.8,20.86,20.86,0,0,1,11.35-11.06,19.14,19.14,0,0,1,15.84-.16,16,16,0,0,1,7.29,6.05,16.38,16.38,0,0,1,2.68,8.85l9.57,4.14Zm-20-12a9.41,9.41,0,0,1-.08-6.09,10.7,10.7,0,0,0-7.16,4.6l-.12.27-.11.27a.4.4,0,0,0-.22.22l-.11.27a6.63,6.63,0,0,0-.25,3.93,4.28,4.28,0,0,0,2.71,2.94,7.15,7.15,0,0,0,4.59.34,11.3,11.3,0,0,0,4.35-2A9.24,9.24,0,0,1,648.9,112.53Z"/><path class="cls-1" d="M710,149.48l-4.74-2.9a21.78,21.78,0,0,1-12.19,6.25,18.76,18.76,0,0,1-13.52-2.44l-.54-.33a1.93,1.93,0,0,1-.48-.43,3,3,0,0,1-.51-.38,3.6,3.6,0,0,0-.51-.38,15.55,15.55,0,0,1-5.75-10.25,17.28,17.28,0,0,1,2.53-11.56,20.86,20.86,0,0,1,12.8-9.35,19.15,19.15,0,0,1,15.71,2.08,16,16,0,0,1,6.36,7,16.37,16.37,0,0,1,1.39,9.14l8.89,5.45ZM692,134.74a9.47,9.47,0,0,1,.78-6,10.32,10.32,0,0,0-4.27,1,10.14,10.14,0,0,0-3.47,2.56l-.15.25-.15.25a.4.4,0,0,0-.25.19l-.15.25a6.65,6.65,0,0,0-.8,3.86,4.27,4.27,0,0,0,2.27,3.29,7.14,7.14,0,0,0,4.49,1,11.28,11.28,0,0,0,4.59-1.4A9.25,9.25,0,0,1,692,134.74Z"/><path class="cls-1" d="M741.88,175.28l-1,.7a5.68,5.68,0,0,0-1,1,3.08,3.08,0,0,0-.47.74,5,5,0,0,0-.29.89,2.07,2.07,0,0,0,.27,1.13,6.44,6.44,0,0,0,.66,1,1,1,0,0,0,.28.39l.36.3,5.78,4.83-10.2,6.42-2.93-2.45a16.55,16.55,0,0,1-4-4.95,13.46,13.46,0,0,1-1.58-6.23,23.64,23.64,0,0,1-6.34-.92,17.84,17.84,0,0,1-5.41-2.56,3.5,3.5,0,0,1-.74-.47l-.67-.56q-5.51-4.61-5.36-9.93a15.22,15.22,0,0,1,3.71-9.58c.34-.41.69-.8,1-1.16s.71-.69,1.07-1a23,23,0,0,1,2.5-1.91,28.48,28.48,0,0,1,2.7-1.6,27.11,27.11,0,0,1,12.52-2.59,19.77,19.77,0,0,1,12.61,4.88l5.42,4.54,30.22-19,9.24,7.73Zm-3.8-15a9.89,9.89,0,0,0-7.64-2.16,14.27,14.27,0,0,0-7.6,2.85,1.89,1.89,0,0,1-.34.32,1.73,1.73,0,0,0-.34.32,4.79,4.79,0,0,0-1.3,2q-.25.92,1.09,2l.31.26.31.26a9.94,9.94,0,0,0,5.85,1.5,12.93,12.93,0,0,0,5.91-1.47,2.33,2.33,0,0,0,.43-.24,2.16,2.16,0,0,1,.43-.24l5.47-3.28Z"/><path class="cls-1" d="M761.63,212.78q-6.8-.2-12.13-6l-7.92-8.61,11-5,5.41,5.89a6.07,6.07,0,0,0,4.08,2.3,6.26,6.26,0,0,0,4.35-2,13.07,13.07,0,0,0,2-2.33,12.17,12.17,0,0,0,1.29-2.45l-6.34.72a22.64,22.64,0,0,0-2.72.38l-1.32-11.37q8.49-1,13.67-1.55,5-.69,9.32-1.17t4.37-.55l3.22,11q-.16,0-2.39.31T782,193a24.1,24.1,0,0,1-2.63,8,25.15,25.15,0,0,1-5.2,6.75Q768.42,213,761.63,212.78Z"/><path class="cls-1" d="M873.7,279.74a12,12,0,0,1-3.92,3.25,15.29,15.29,0,0,1-1.59.71,11.5,11.5,0,0,1-1.7.5A23.14,23.14,0,0,1,861,285a50.45,50.45,0,0,1-5.49-.12,63,63,0,0,1-6.76-1q-3.59-.73-7.29-1.79a111.58,111.58,0,0,1-11.11-3.58q-5.64-2.14-11-4.57l-.39-.12a1.44,1.44,0,0,1-.44-.22l4.76-10.36q4.34,2,8.91,3.76t8.95,3.08q4.23,1.31,8.08,2.17a64.52,64.52,0,0,0,7.17,1.2,6,6,0,0,0,1.19.16,15.35,15.35,0,0,0,2,0h1a13.45,13.45,0,0,0,2.22-.12,5,5,0,0,0,1.44-.37l.11-.05,0-.16a3.5,3.5,0,0,0,0-1.63,7.53,7.53,0,0,0-.63-1.56,10.21,10.21,0,0,0-1.36-2,17.47,17.47,0,0,0-1.77-1.75c-.74-.57-1.47-1.13-2.19-1.67s-1.46-1-2.23-1.51-1.68-1-2.41-1.35l-1.83-1q-1.78-.9-3.9-1.81a44.45,44.45,0,0,0-4.46-1.64,77.85,77.85,0,0,0-13.7-3.4,40.92,40.92,0,0,0-13.73,0,22.78,22.78,0,0,0-3.48.85,21,21,0,0,0-3.21,1.36,9.63,9.63,0,0,0-3.89,3.42q-1.23,2,.28,4.89l3.45,6.56,3.94,7.49,3.94,7.48,3.45,6.56-11.88,2.06-3-5.69-3.48-6.62-3.56-6.77-3-5.74q-3.77-7.18-1.14-13.74a19.61,19.61,0,0,1,9.5-10.17c.41-.22.83-.42,1.26-.6s.85-.38,1.26-.59a43.31,43.31,0,0,1,22.21-2.46,88.75,88.75,0,0,1,22.48,5.78l3,1.26q1.43.62,2.85,1.31a7.87,7.87,0,0,0,.71.35,2.06,2.06,0,0,1,.6.4,65.39,65.39,0,0,1,7,4.36,27.85,27.85,0,0,1,6.06,5.78,18.59,18.59,0,0,1,1.33,1.79c.43.65.8,1.28,1.13,1.89a17.56,17.56,0,0,1,1.68,4.68,14.74,14.74,0,0,1,.08,5.13A10.65,10.65,0,0,1,873.7,279.74Z"/><path class="cls-1" d="M842.93,340.43l-1.77-5.27a21.78,21.78,0,0,1-13.36-3,18.75,18.75,0,0,1-8.8-10.55l-.2-.6a2,2,0,0,1-.09-.64,3.16,3.16,0,0,1-.15-.62,3.06,3.06,0,0,0-.15-.62,15.56,15.56,0,0,1,2.17-11.54,17.27,17.27,0,0,1,9.36-7.24,20.86,20.86,0,0,1,15.81,1A19.14,19.14,0,0,1,856.46,313a16,16,0,0,1,.37,9.47,16.35,16.35,0,0,1-4.8,7.9l3.32,9.89Zm-4.39-22.91a9.42,9.42,0,0,1,4.48-4.13,10.26,10.26,0,0,0-3.91-2,10.14,10.14,0,0,0-4.3-.27l-.28.09-.27.09a.41.41,0,0,0-.31,0l-.27.09a6.63,6.63,0,0,0-3.09,2.44,4.27,4.27,0,0,0-.38,4,7.15,7.15,0,0,0,2.81,3.64,11.34,11.34,0,0,0,4.42,1.88A9.22,9.22,0,0,1,838.54,317.52Z"/><path class="cls-1" d="M832.09,361.38A6.71,6.71,0,0,1,829,357a6.58,6.58,0,0,1,.94-5.13,6.69,6.69,0,0,1,4.37-3,6.51,6.51,0,0,1,5.19.92,6.67,6.67,0,0,1,3,4.26,6.82,6.82,0,0,1-.85,5.24,6.5,6.5,0,0,1-4.31,3A6.7,6.7,0,0,1,832.09,361.38Z"/><path class="cls-1" d="M392.23,226.16l-10.85,5.26-2.56-5.29,10.84-5.26Z"/><path class="cls-1" d="M402.3,194.26l22.35-7.48,2.24,6.69-15.1,5.05,2.05,6.13,14.26-4.77,2.24,6.69-14.26,4.77,2.24,6.69,15.94-5.33,2.24,6.69-23.18,7.76Z"/><path class="cls-1" d="M450.12,198.93a5.2,5.2,0,0,0-4.61-1,4,4,0,0,0-1.67.84,1.56,1.56,0,0,0-.51,1.68,1.36,1.36,0,0,0,1.18,1.06,11.75,11.75,0,0,0,2.41.19H450a11.29,11.29,0,0,1,3.17.44,6.71,6.71,0,0,1,2.73,1.55,6.38,6.38,0,0,1,1.7,3.3,6.65,6.65,0,0,1-.11,3.92,7.73,7.73,0,0,1-2,2.92,11,11,0,0,1-3.14,2,20.85,20.85,0,0,1-3.69,1.24,18.75,18.75,0,0,1-5.08.46,9.41,9.41,0,0,1-4.77-1.47l3.21-5.83a7.4,7.4,0,0,0,2.66,1.37,6.15,6.15,0,0,0,3,0,6.86,6.86,0,0,0,2.16-.88,1.35,1.35,0,0,0,.69-1.55,1.5,1.5,0,0,0-1.2-1.15,10.07,10.07,0,0,0-2.42-.24h-3.07a12.31,12.31,0,0,1-3.16-.39,6.27,6.27,0,0,1-2.72-1.5,6.36,6.36,0,0,1-1.7-3.3,7.24,7.24,0,0,1,0-3.73,7.56,7.56,0,0,1,1.62-2.95,9.81,9.81,0,0,1,2.8-2.14,14.71,14.71,0,0,1,3.47-1.29,17.2,17.2,0,0,1,4.78-.42,8.81,8.81,0,0,1,4.52,1.46Z"/><path class="cls-1" d="M475.6,193.3l-6.39,1,1.24,7.84a15,15,0,0,0,.37,1.75,3.57,3.57,0,0,0,.66,1.31,2.2,2.2,0,0,0,1.18.73,4.67,4.67,0,0,0,1.91,0,12.52,12.52,0,0,0,1.51-.36,2.64,2.64,0,0,0,1.34-.78l1,6a11.08,11.08,0,0,1-2.43,1,23.3,23.3,0,0,1-2.54.55,14.13,14.13,0,0,1-3.45.15,7.85,7.85,0,0,1-2.91-.81,5.9,5.9,0,0,1-2.16-1.92,7.6,7.6,0,0,1-1.17-3.19L462,195.46l-4.64.73-.92-5.81,4.65-.73-1.1-7,7.26-1.14,1.1,7,6.39-1Z"/><path class="cls-1" d="M481.33,206.53a4.66,4.66,0,0,1,.17-1.79,4.33,4.33,0,0,1,2.16-2.62,4.71,4.71,0,0,1,3.51-.34,4.32,4.32,0,0,1,2.62,2.16,4.58,4.58,0,0,1,.51,1.72,4.51,4.51,0,0,1-.17,1.79,4.41,4.41,0,0,1-.81,1.53,4.35,4.35,0,0,1-1.35,1.09,4.71,4.71,0,0,1-3.51.34,4.35,4.35,0,0,1-2.62-2.16A4.56,4.56,0,0,1,481.33,206.53Z"/><path class="cls-1" d="M509.63,200.93l13.78-11.74a26.13,26.13,0,0,0,2.11-2.05,4,4,0,0,0,1.1-2.72,3.33,3.33,0,0,0-1.2-2.8,4.69,4.69,0,0,0-3-1.08,4.1,4.1,0,0,0-3.24,1.19,5.16,5.16,0,0,0-1.38,3.1l-7.33-.73a11.89,11.89,0,0,1,1.25-4.65,9.81,9.81,0,0,1,2.68-3.24,10.91,10.91,0,0,1,3.85-1.88,16.25,16.25,0,0,1,4.74-.54,14.37,14.37,0,0,1,4.39.78,10.35,10.35,0,0,1,3.52,2.05,9,9,0,0,1,2.29,3.32,11.3,11.3,0,0,1,.74,4.58,12.25,12.25,0,0,1-.42,3,10.33,10.33,0,0,1-1,2.42,11.31,11.31,0,0,1-1.5,2,23.7,23.7,0,0,1-1.86,1.77l-10.76,8.78,15.38.4-.17,6.46-24.19-.63Z"/><path class="cls-1" d="M539,192.35a35.8,35.8,0,0,1,1.35-6.15,18.37,18.37,0,0,1,2.71-5.49,12,12,0,0,1,4.44-3.71,13.17,13.17,0,0,1,12.64,1.59,12,12,0,0,1,3.39,4.7,18.38,18.38,0,0,1,1.27,6,35.72,35.72,0,0,1-.22,6.29,36.18,36.18,0,0,1-1.34,6.15,18.43,18.43,0,0,1-2.72,5.48,12,12,0,0,1-4.44,3.71,13.17,13.17,0,0,1-12.64-1.59,11.91,11.91,0,0,1-3.38-4.7,18.28,18.28,0,0,1-1.27-6A36.1,36.1,0,0,1,539,192.35Zm7.29.92q-.17,1.36-.29,3.27a16,16,0,0,0,.2,3.73,7.8,7.8,0,0,0,1.25,3.17,4.53,4.53,0,0,0,6.15.77,7.6,7.6,0,0,0,2-2.76,16.13,16.13,0,0,0,1.12-3.56c.24-1.25.42-2.33.53-3.24s.21-2,.29-3.27a16,16,0,0,0-.2-3.73,7.64,7.64,0,0,0-1.28-3.17,4.53,4.53,0,0,0-6.15-.77,7.8,7.8,0,0,0-2,2.76,15.91,15.91,0,0,0-1.11,3.56C546.62,191.28,546.45,192.36,546.33,193.26Z"/><path class="cls-1" d="M582.9,190.2l-8.15,4.41-3-5.61,13.16-6.78,6.69,1.53-7.75,33.81L577,216Z"/><path class="cls-1" d="M611.23,202.48c.41,0,.8.08,1.19.14a7.18,7.18,0,0,1,1.19.3,11,11,0,0,1,3.94,2.26,10.35,10.35,0,0,1,2.48,3.37,10.73,10.73,0,0,1,.94,4.12,12.53,12.53,0,0,1-.67,4.45,11.58,11.58,0,0,1-2.51,4.3,11.43,11.43,0,0,1-3.8,2.67,12.26,12.26,0,0,1-4.67,1,15.48,15.48,0,0,1-9.63-3.25,12.41,12.41,0,0,1-3.1-3.61,11.29,11.29,0,0,1-.79-9.37,15.54,15.54,0,0,1,1.41-3.12,17.72,17.72,0,0,1,1.79-2.47,18.43,18.43,0,0,1,2.09-2.06q1.12-.94,2.33-1.93l11-8.8,8.49,2.87Zm2.2,12a5.27,5.27,0,0,0-.21-4.18,6.06,6.06,0,0,0-7.66-2.59,5.69,5.69,0,0,0-2.49,7.38,6.07,6.07,0,0,0,7.66,2.59A5.27,5.27,0,0,0,613.43,214.5Z"/><path class="cls-1" d="M646.52,231.37l-10.84-5.26,2.56-5.29,10.84,5.26Z"/></svg>