<svg id="Capa_1" data-name="Capa 1" xmlns="http://www.w3.org/2000/svg" viewBox="0 0 54.95 40.71"><title>ads</title><path d="M35.44,15.27H33.8v.55h1.37v1.1H33.8v.55h1.37V27.63H19.78V17.47h1.37v-.55H19.78v-1.1h1.37v-.55H19.51a.26.26,0,0,0-.27.27V27.91a.26.26,0,0,0,.27.27H35.44a.26.26,0,0,0,.27-.27V15.55A.26.26,0,0,0,35.44,15.27Z"/><path d="M20.88,24.61v.55H34.07v-.55h-.82V12.8a.26.26,0,0,0-.27-.27H22a.26.26,0,0,0-.27.27V24.61Zm10.17,0H23.9V20.77H31ZM22.26,13.07h1.92v.82h-.55v.55h1.65V13.9h-.55v-.82H27.2v.82h-.55v.55H28.3V13.9h-.55v-.82h2.47v.82h-.55v.55h1.65V13.9h-.55v-.82H32.7V24.61H31.6V20.77h.55v-.55H22.81v.55h.55v3.85h-1.1Z"/><path d="M23.9,17.74h1.37v1.65h.55V15.55a.26.26,0,0,0-.27-.27H23.63a.26.26,0,0,0-.27.27v3.85h.55Zm1.37-1.92v1.37H23.9V15.82Z"/><path d="M26.65,19.39h1.24a.75.75,0,0,0,.69-.82V16.1a.75.75,0,0,0-.69-.82H26.65a.26.26,0,0,0-.27.27v3.57A.26.26,0,0,0,26.65,19.39Zm.27-3.57h1a.31.31,0,0,1,.14.27v2.47a.31.31,0,0,1-.14.27h-1Z"/><path d="M30.22,19.39h.27a1.1,1.1,0,0,0,1.1-1.1V18a1.1,1.1,0,0,0-1.1-1.1h-.27a.5.5,0,0,1-.55-.44v-.25a.5.5,0,0,1,.55-.44h.27a.5.5,0,0,1,.55.44v.14h.55v-.14a1,1,0,0,0-1.1-1h-.27a1,1,0,0,0-1.1,1v.25a1,1,0,0,0,1.1,1h.27A.55.55,0,0,1,31,18v.27a.55.55,0,0,1-.55.55h-.27a.55.55,0,0,1-.55-.55V18h-.55v.27A1.1,1.1,0,0,0,30.22,19.39Z"/></svg>