<svg id="Layer_1" data-name="Layer 1" xmlns="http://www.w3.org/2000/svg" viewBox="0 0 1920 1080"><defs><style>.cls-1{fill:#1565c0;}.cls-2{fill:#fff;}</style></defs><title>build</title><circle class="cls-1" cx="238" cy="540" r="427"/><path class="cls-2" d="M171.91,423.57a348.14,348.14,0,0,0,151.82,0,5,5,0,0,0,4-5.41c-3.57-34.2-27.92-62.26-59-71.17v-5.94a5,5,0,0,0-10,0v3.83a67.69,67.69,0,0,0-21.83,0v-3.82a5,5,0,0,0-10,0V347c-31,8.91-55.39,37-58.95,71.17A5,5,0,0,0,171.91,423.57ZM227,357.47v15.45a5,5,0,0,0,10,0V355a61.85,61.85,0,0,1,21.83,0v18a5,5,0,0,0,10,0V357.46c24.58,8.18,43.93,30.23,48.43,57.33a339.25,339.25,0,0,1-138.64,0C183,387.69,202.39,365.65,227,357.47Zm51.78,51.89a141.51,141.51,0,0,1-61.78,0,5,5,0,0,1,2.17-9.74,132.22,132.22,0,0,0,57.43,0,5,5,0,1,1,2.18,9.74ZM164.68,446.11c.09-3.24.38-13.1,7.46-15.76s14.12,4.47,15.48,5.92a5,5,0,1,1-7.29,6.82,13.91,13.91,0,0,0-4.55-3.26c-.34.64-1,2.42-1.12,6.59-.51,17.32,12.91,22,13,22a5,5,0,0,1,3.23,3.4l.21.78a5.21,5.21,0,0,1,.16.92c3.82,45.48,39.76,60.19,56.56,60.19s52.75-14.71,56.56-60.19a5,5,0,0,1,.16-.9l.21-.78a5,5,0,0,1,3.23-3.42c.52-.18,13.54-5,13-22-.12-4.17-.78-5.94-1.12-6.59a14.16,14.16,0,0,0-4.56,3.26,5,5,0,0,1-7.29-6.82c1.35-1.46,8.47-8.56,15.48-5.92s7.36,12.53,7.46,15.76c.51,17.22-9.59,26.81-16.9,30.53-5,46.23-41.49,67.06-66.29,67.06s-61.31-20.82-66.29-67.06C174.27,472.92,164.17,463.34,164.68,446.11Zm90.82-1a5,5,0,0,0-3.79,1.74,4.83,4.83,0,0,0-.54,1h-6.59a4.83,4.83,0,0,0-.54-1,5,5,0,0,0-3.79-1.74H200.92a5,5,0,0,0-5,5.07c.08,4.66.88,20.31,7.74,25.88,4.38,3.56,11.21,5.77,17.84,5.77,6.34,0,11.65-2,15-5.65,3.6-3.94,6-12.21,7.36-18.35h8c1.37,6.14,3.76,14.41,7.36,18.35,3.33,3.64,8.65,5.65,15,5.65,6.63,0,13.46-2.21,17.84-5.77,6.85-5.57,7.66-21.22,7.74-25.88a5,5,0,0,0-5-5.07ZM229.12,469.5c-1.39,1.53-4.16,2.39-7.6,2.39-4.31,0-8.95-1.42-11.54-3.53-1.72-1.4-3.13-7.3-3.74-13.24h28C232.93,461,231,467.45,229.12,469.5Zm56.65-1.13c-2.6,2.11-7.24,3.53-11.54,3.53-3.44,0-6.22-.87-7.61-2.4-1.87-2.06-3.82-8.52-5.1-14.37h28C288.9,461.07,287.49,467,285.77,468.37ZM410,545.48a520.91,520.91,0,0,1-153.64,25.75V691.42a5,5,0,0,1-10,0V589.3a519.93,519.93,0,0,1-112.62-12.63,4.8,4.8,0,0,1-1.17-.25c-15.71-3.56-31.3-7.77-46.69-12.8l2.81,38.59a5,5,0,0,1-4.61,5.34h-.37a5,5,0,0,1-5-4.62l-3.35-46.06A5,5,0,0,1,82,551.79,512.21,512.21,0,0,0,132,566c10.61-16.89,27.85-29.71,51.36-38.17l-.31-5.22a5,5,0,0,1,10-.59l1.28,21.61,14.91-5.34a5,5,0,0,1,3.37,9.39l-21.18,7.59a5,5,0,0,1-1.68.29,5,5,0,0,1-5-4.69L184,538.24c-18.79,7.18-32.56,17.08-41.68,30.12a511,511,0,0,0,104.13,11v-13a5,5,0,0,1,5-5,511.51,511.51,0,0,0,87.54-8.21,101.6,101.6,0,0,0-26.46-14.91l-.75,12.68a5,5,0,0,1-6.66,4.4l-21.17-7.59a5,5,0,0,1,3.37-9.39l14.9,5.34L303.4,522a4.93,4.93,0,0,1,5.27-4.68,5,5,0,0,1,4.68,5.27l-.31,5.19c15.3,5.56,28.66,13.58,38.18,22.94a512.5,512.5,0,0,0,62.51-17,5,5,0,0,1,6.6,5l-3.17,67a5,5,0,0,1-10-.47ZM434.12,623c-4.46-4.48-11.43-6.66-21.32-6.66s-16.87,2.18-21.32,6.66c-6,6-5.91,14.4-5.87,21.82v34.62a27.19,27.19,0,0,0,54.38,0V644.82C440,637.4,440.08,629,434.12,623ZM430,644.77v34.68a17.19,17.19,0,0,1-32.91,7h10.16a5,5,0,1,0,0-10H395.59V668h11.68a5,5,0,0,0,0-10H395.58V649h11.69a5,5,0,0,0,0-10h-11.6c.2-3.7.85-6.92,2.88-9,2.45-2.46,7.24-3.72,14.25-3.72S424.6,627.58,427,630C430.08,633.09,430.05,638.76,430,644.77ZM86,613.07c-10.59,0-18,2.31-22.78,7.08C56.91,626.51,57,635.51,57,643.45v37.45a29,29,0,1,0,58,0V643.45c0-7.94.09-16.95-6.24-23.3C104.06,615.38,96.61,613.07,86,613.07Zm0,86.87a19,19,0,0,1-19-19V643.4c0-6.58-.07-12.8,3.33-16.22C73,624.44,78.33,623,86,623s13,1.39,15.71,4.14c2.36,2.37,3.05,6.12,3.25,10.38H92a5,5,0,1,0,0,10h13.05v10.65H92a5,5,0,0,0,0,10h13v9.93H92a5,5,0,1,0,0,10h11.62A19,19,0,0,1,86,699.93Z"/></svg>