<svg id="Capa_1" data-name="Capa 1" xmlns="http://www.w3.org/2000/svg" viewBox="0 0 54.95 40.71"><title>colors</title><path d="M32.13,23.49l3.63-2.09L32.9,16.46l-3.57,2.06,2-3.59-4.94-2.85L24.34,15.7V11.51h-5.7V26.34a2.85,2.85,0,0,0,2.85,2.85H36.32v-5.7Zm.56-6.25,2.28,4-4,2.3H29.85l.4-.23L30,22.77l-.49.29.25.44H21.87Zm-6.05-4.38,4,2.28-2.23,3.94h0l-1.07.62.23-.4L27,19l-.29.49.44.25-6.8,3.93Zm-7.44-.77h4.56v4.6l-.57,1v-.46h-.57v.57h.51l-3.93,6.8ZM35.75,28.62H21.49a2.28,2.28,0,0,1-1.18-4.23l.12-.07a2.27,2.27,0,0,1,1.06-.26H35.75Z"/><path d="M20.06,26.34a1.43,1.43,0,1,0,1.43-1.43A1.43,1.43,0,0,0,20.06,26.34Zm2.28,0a.86.86,0,1,1-.86-.86A.86.86,0,0,1,22.34,26.34Z"/><rect x="34.61" y="27.48" width="0.57" height="0.57"/><rect x="33.47" y="27.48" width="0.57" height="0.57"/><rect x="32.32" y="27.48" width="0.57" height="0.57"/><rect x="31.18" y="27.48" width="0.57" height="0.57"/><rect x="30.04" y="27.48" width="0.57" height="0.57"/><rect x="28.9" y="27.48" width="0.57" height="0.57"/><rect x="33.52" y="20.59" width="0.57" height="0.57" transform="translate(-5.91 19.7) rotate(-29.99)"/><rect x="32.53" y="21.16" width="0.57" height="0.57" transform="translate(-6.33 19.28) rotate(-29.99)"/><rect x="31.55" y="21.73" width="0.57" height="0.57" transform="translate(-6.74 18.86) rotate(-29.99)"/><rect x="30.56" y="22.3" width="0.57" height="0.57" transform="translate(-7.16 18.44) rotate(-29.99)"/><rect x="29.14" y="15.16" width="0.57" height="0.57" transform="translate(1.34 33.21) rotate(-60.01)"/><rect x="28.57" y="16.15" width="0.57" height="0.57" transform="translate(0.2 33.21) rotate(-60.01)"/><rect x="28" y="17.14" width="0.57" height="0.57" transform="translate(-0.95 33.2) rotate(-59.99)"/><rect x="27.43" y="18.13" width="0.57" height="0.57" transform="translate(-2.09 33.2) rotate(-59.99)"/><rect x="22.63" y="12.65" width="0.57" height="0.57"/><rect x="22.63" y="13.79" width="0.57" height="0.57"/><rect x="22.63" y="14.94" width="0.57" height="0.57"/><rect x="22.63" y="16.08" width="0.57" height="0.57"/></svg>