<svg id="Capa_1" data-name="Capa 1" xmlns="http://www.w3.org/2000/svg" viewBox="0 0 54.95 40.71"><title>pro</title><path d="M32.55,14.32H31.07V13.16a.26.26,0,0,0-.11-.21.47.47,0,0,0-.15,0H24.14a.48.48,0,0,0-.15,0,.26.26,0,0,0-.11.21v1.15H22.41a.26.26,0,0,0-.26.26v13a.26.26,0,0,0,.26.26H32.55a.26.26,0,0,0,.26-.26v-13A.26.26,0,0,0,32.55,14.32Zm-5.07-.2-1.88-.7h3.76Zm3.08-.58V15l-1.86,1.14-.84-1.59Zm-6.15,0,2.71,1-.84,1.59L24.4,15ZM22.67,18.3H25V19H22.67Zm0,1.17h2.58a.26.26,0,0,0,.26-.26V18a.26.26,0,0,0-.26-.26H22.67V14.84h1.21v.3a.26.26,0,0,0,.12.22l2.22,1.36a.26.26,0,0,0,.14,0h.07a.26.26,0,0,0,.16-.13l.62-1.17V27.28H22.67Zm5.07,7.81V15.45l.62,1.17a.26.26,0,0,0,.16.13h.07a.26.26,0,0,0,.14,0l2.22-1.36a.26.26,0,0,0,.12-.22v-.3h1.21v2.94H29.71a.26.26,0,0,0-.26.26v1.17a.26.26,0,0,0,.26.26h2.58v7.81H27.74ZM32.28,19H30V18.3h2.32Z"/></svg>