<svg id="Capa_1" data-name="Capa 1" xmlns="http://www.w3.org/2000/svg" viewBox="0 0 54.95 40.71"><title>search</title><path d="M33.3,16.94a4.75,4.75,0,0,0-4.69-4.49,4.89,4.89,0,0,0-3.87,1.94l-.06,0-.17-.07-.1,0-.17-.05-.1,0-.19,0h-.09l-.28,0a2.5,2.5,0,0,0-2.5,2.5s0,.07,0,.11A3.84,3.84,0,0,0,19.15,20a3.57,3.57,0,0,0,3.56,3.56h1.43a.28.28,0,0,0,0-.55H22.72a3,3,0,0,1-3-3,3.3,3.3,0,0,1,1.78-2.84l.16-.08v-.17s0-.07,0-.1v-.1s0,0,0-.07a1.94,1.94,0,0,1,1.94-1.94l.25,0h.06l.22,0h0l.23.09.06,0,.2.11a1.94,1.94,0,0,1,.89,1.63.28.28,0,1,0,.55,0,2.49,2.49,0,0,0-.89-1.91A4.39,4.39,0,0,1,28.61,13a4.19,4.19,0,0,1,4.12,3.85,5.28,5.28,0,0,0-1.13,0,.28.28,0,0,0,0,.55h0a5.12,5.12,0,0,1,1.3,0,2.84,2.84,0,0,1,2.27,2.77A2.79,2.79,0,0,1,32.46,23h-1.1a.28.28,0,0,0,0,.55h1.1a3.34,3.34,0,0,0,3.34-3.34A3.41,3.41,0,0,0,33.3,16.94Z"/><path d="M30.1,25.22a3.06,3.06,0,1,0-.39.39l2.57,2.57a.28.28,0,1,0,.39-.39Zm-2.34.55a2.5,2.5,0,1,1,2.5-2.5A2.5,2.5,0,0,1,27.75,25.76Z"/></svg>