<svg id="Capa_1" data-name="Capa 1" xmlns="http://www.w3.org/2000/svg" viewBox="0 0 54.95 40.71"><title>site</title><path d="M36.55,13.3H18.41a.34.34,0,0,0-.34.34V27.07a.34.34,0,0,0,.34.34H36.55a.34.34,0,0,0,.34-.34V13.64A.34.34,0,0,0,36.55,13.3ZM20.42,26.74H18.74V16.32h1.68Zm8.4,0H21.09V16.32h7.73Zm2.35,0H29.49V16.32h1.68Zm5,0H31.84V16.32h4.37Zm0-11.08H18.74V14H36.21Z"/><path d="M22.1,21h5.71a.34.34,0,0,0,.34-.34V17.33a.34.34,0,0,0-.34-.34H22.1a.34.34,0,0,0-.34.34v3.36A.34.34,0,0,0,22.1,21Zm.34-3.36h5v2.69h-5Z"/><path d="M22.1,26.4h5.71a.34.34,0,0,0,.34-.34V22.71a.34.34,0,0,0-.34-.34H22.1a.34.34,0,0,0-.34.34v3.36A.34.34,0,0,0,22.1,26.4ZM22.44,23h5v2.69h-5Z"/><rect x="22.1" y="21.36" width="5.71" height="0.67"/></svg>